<svg version="1.1" xmlns="http://www.w3.org/2000/svg" xmlns:xlink="http://www.w3.org/1999/xlink" x="0px" y="0px"
	 viewBox="0 0 216 216" enable-background="new 0 0 216 216" xml:space="preserve">
<path d="M215.1,49c-0.1-0.2-0.2-0.4-0.3-0.6L167.6,1.2c-0.2,0-0.4-0.1-0.6-0.3H49c-0.2,0.1-0.4,0.2-0.6,0.3L1.2,48.4
	c0,0.2-0.1,0.4-0.3,0.6v118c0.1,0.2,0.2,0.4,0.3,0.6l47.2,47.2c0.2,0.2,0.4,0.3,0.6,0.3h118c0.2,0,0.5-0.1,0.6-0.3l47.2-47.2
	c0-0.2,0.1-0.4,0.3-0.6V49z M2.7,50.5l6.8,3.8l17.4,9.7v88.2l-17.4,9.7l-6.8,3.8V50.5z M167.2,3.2l45.6,45.6l-0.9,0.5l-23.4,13
	l-34.8-34.8l13.4-24.2L167.2,3.2z M187.4,151.1l-5.4-3l-11-6.1V74l16.4-9.1V151.1z M46.7,141.1V74.9l2.7,1.5l6.8,3.8v55.6l-8.9,4.9
	L46.7,141.1z M57.9,80.1l22.1-22.1h55.9l22.1,22.1v55.9l-22.1,22.1H80.1l-22.1-22.1V80.1z M159.8,135.8V80.2l6.8-3.8l2.7-1.5v66.2
	l-0.7-0.4L159.8,135.8z M168.8,73.2l-9.7,5.4l-21.7-21.7l5.4-9.7l13,13L168.8,73.2z M139.6,49.4l-3.8,6.8H80.2l-3.8-6.8l-1.5-2.7
	h66.2L139.6,49.4z M76.4,166.6l3.8-6.8h55.6l3.8,6.8l1.5,2.7H74.9L76.4,166.6z M142.8,168.8l-5.4-9.7l21.7-21.7l6.6,3.7l3.1,1.7
	l-13,13L142.8,168.8z M186.9,63.2l-0.2,0.1l-16.4,9.1L157,59l-13.4-13.4l9.1-16.4l0.1-0.2l17,17L186.9,63.2z M149,32.5l-6.9,12.5
	H73.9l-6.1-11l-3-5.4h86.3L149,32.5z M73.2,47.2l5.4,9.7L56.9,78.6l-9.7-5.4l13-13L73.2,47.2z M28.6,151.1V64.9l2.7,1.5L44.9,74V142
	l-11.7,6.5L28.6,151.1z M47.2,142.8l3.1-1.7l6.6-3.7l21.7,21.7l-5.4,9.7l-13-13L47.2,142.8z M67.4,182.8l6.5-11.7h68.1l7.6,13.6
	l1.5,2.7H64.9L67.4,182.8z M152.8,186.9l-0.5-0.8l-8.7-15.7L157,157l13.4-13.4l16.5,9.2l-17,17L152.8,186.9z M162.3,8.5l-10.2,18.3
	H63.9L52.5,6.3l-2-3.6h115.1L162.3,8.5z M63.2,29.1l9.2,16.5L59,59L45.6,72.4l-16.5-9.2L63.2,29.1z M29.1,152.8l16.5-9.2L59,157
	l13.4,13.4l-9.2,16.5l-17-17L29.1,152.8z M53.2,208.4l10.7-19.2h88.2l9.7,17.4l3.8,6.8H50.5L53.2,208.4z M153.7,188.5l17.4-17.4
	l17.4-17.4l24.2,13.4l0.2,0.1l-45.6,45.6L153.7,188.5z M207.5,162.3l-18.3-10.2V63.9l18.3-10.2l5.8-3.2v115.1L207.5,162.3z
	 M48.8,3.2l0.8,1.4l12.7,22.9L44.9,44.9L27.5,62.3L3.2,48.8L48.8,3.2z M27.5,153.7l17.4,17.4l17.4,17.4L49.2,212l-0.4,0.8L3.2,167.2
	L27.5,153.7z"/>
</svg>
