<?xml version="1.0" encoding="utf-8"?>
<svg x="0px" y="0px" viewBox="0 0 216 216" xmlns="http://www.w3.org/2000/svg">
  <defs>
    <pattern id="pattern-0" x="0" y="0" width="20" height="20" patternUnits="userSpaceOnUse" viewBox="0 0 100 100">
      <path d="M 0 0 L 50 0 L 50 100 L 0 100 Z" style="fill: black;"/>
    </pattern>
  </defs>
  <path d="M 27.5 153.7 L 44.9 171.1 L 62.3 188.5 L 49.2 212 L 48.8 212.8 L 3.2 167.2 L 27.5 153.7 Z M 48.8 3.2 L 49.6 4.6 L 62.3 27.5 L 44.9 44.9 L 27.5 62.3 L 3.2 48.8 L 15.133 36.867 L 48.8 3.2 Z M 207.5 162.3 L 189.2 152.1 L 189.2 63.9 L 207.5 53.7 L 213.3 50.5 L 213.3 165.6 L 207.5 162.3 Z M 153.7 188.5 L 171.1 171.1 L 188.5 153.7 L 212.7 167.1 L 212.9 167.2 L 167.3 212.8 L 153.7 188.5 Z M 53.2 208.4 L 63.9 189.2 L 152.1 189.2 L 161.8 206.6 L 165.6 213.4 L 50.5 213.4 L 53.2 208.4 Z M 29.1 152.8 L 45.6 143.6 L 59 157 L 72.4 170.4 L 63.2 186.9 L 46.2 169.9 L 29.1 152.8 Z M 63.2 29.1 L 72.4 45.6 L 59 59 L 45.6 72.4 L 29.1 63.2 L 63.2 29.1 Z M 162.3 8.5 L 152.1 26.8 L 63.9 26.8 L 52.5 6.3 L 50.5 2.7 L 165.6 2.7 L 162.3 8.5 Z M 152.8 186.9 L 152.3 186.1 L 143.6 170.4 L 157 157 L 170.4 143.6 L 186.9 152.8 L 169.9 169.8 L 152.8 186.9 Z M 67.4 182.8 L 73.9 171.1 L 142 171.1 L 149.6 184.7 L 151.1 187.4 L 64.9 187.4 L 67.4 182.8 Z M 47.2 142.8 L 50.3 141.1 L 56.9 137.4 L 78.6 159.1 L 73.2 168.8 L 60.2 155.8 L 47.2 142.8 Z M 28.6 151.1 L 28.6 64.9 L 31.3 66.4 L 44.9 74 L 44.9 142 L 33.2 148.5 L 28.6 151.1 Z M 73.2 47.2 L 78.6 56.9 L 56.9 78.6 L 47.2 73.2 L 60.2 60.2 L 73.2 47.2 Z M 149 32.5 L 142.1 45 L 73.9 45 L 67.8 34 L 64.8 28.6 L 151.1 28.6 L 149 32.5 Z M 186.9 63.2 L 186.7 63.3 L 170.3 72.4 L 157 59 L 143.6 45.6 L 152.7 29.2 L 152.8 29 L 169.8 46 L 186.9 63.2 Z M 142.8 168.8 L 137.4 159.1 L 159.1 137.4 L 165.7 141.1 L 168.8 142.8 L 155.8 155.8 L 142.8 168.8 Z M 76.4 166.6 L 80.2 159.8 L 135.8 159.8 L 139.6 166.6 L 141.1 169.3 L 74.9 169.3 L 76.4 166.6 Z M 139.6 49.4 L 135.8 56.2 L 80.2 56.2 L 76.4 49.4 L 74.9 46.7 L 141.1 46.7 L 139.6 49.4 Z M 168.8 73.2 L 159.1 78.6 L 137.4 56.9 L 142.8 47.2 L 155.8 60.2 L 168.8 73.2 Z M 159.8 135.8 L 159.8 80.2 L 166.6 76.4 L 169.3 74.9 L 169.3 141.1 L 168.6 140.7 L 159.8 135.8 Z M 57.9 80.1 L 80 58 L 135.9 58 L 158 80.1 L 158 136 L 135.9 158.1 L 80.1 158.1 L 58 136 L 58 80.1 L 57.9 80.1 Z M 46.7 141.1 L 46.7 74.9 L 49.4 76.4 L 56.2 80.2 L 56.2 135.8 L 47.3 140.7 L 46.7 141.1 Z M 187.4 151.1 L 182 148.1 L 171 142 L 171 74 L 187.4 64.9 L 187.4 151.1 Z M 167.2 3.2 L 212.8 48.8 L 211.9 49.3 L 188.5 62.3 L 153.7 27.5 L 167.1 3.3 L 167.2 3.2 Z M 2.7 50.5 L 9.5 54.3 L 26.9 64 L 26.9 152.2 L 9.5 161.9 L 2.7 165.7 L 2.7 50.5 Z M 270.763 183.956 Z" style="stroke-linejoin: round; stroke-width: 0.1; fill: rgb(255, 255, 255); stroke: rgb(51, 51, 51);"/>
</svg>