<?xml version="1.0" encoding="utf-8"?>
<svg x="0px" y="0px" viewBox="0 0 612 792" xmlns="http://www.w3.org/2000/svg">
  <path d="M 449.9 653.1 L 479.5 682.7 L 479.5 101.2 L 449.9 130.8 L 449.9 653.1 Z" style="stroke-width: 0.1; stroke-linejoin: round; stroke: rgb(51, 51, 51); fill: rgb(255, 255, 255);"/>
  <path d="M 165.4 656.4 L 135.7 686 L 476.3 686 L 446.7 656.4 L 165.4 656.4 Z" style="stroke-width: 0.1; stroke-linejoin: round; stroke: rgb(51, 51, 51); fill: rgb(255, 255, 255);"/>
  <path d="M 162.1 130.8 L 132.5 101.2 L 132.5 682.7 L 162.1 653.1 L 162.1 130.8 Z" style="stroke-width: 0.1; stroke-linejoin: round; stroke: rgb(51, 51, 51); fill: rgb(255, 255, 255);"/>
  <path d="M 446.6 127.5 L 476.3 97.9 L 135.8 97.9 L 165.4 127.5 L 446.6 127.5 Z" style="stroke-width: 0.1; stroke-linejoin: round; stroke: rgb(51, 51, 51); fill: rgb(255, 255, 255);"/>
  <path d="M 415.6 618.8 L 445.2 648.4 L 445.2 135.5 L 415.6 165.1 L 415.6 618.8 Z" style="stroke-width: 0.1; stroke-linejoin: round; stroke: rgb(51, 51, 51); fill: rgb(255, 255, 255);"/>
  <path d="M 199.7 622.1 L 170 651.7 L 442 651.7 L 412.4 622.1 L 199.7 622.1 Z" style="stroke-width: 0.1; stroke-linejoin: round; stroke: rgb(51, 51, 51); fill: rgb(255, 255, 255);"/>
  <path d="M 196.4 165.1 L 166.8 135.5 L 166.8 648.4 L 196.4 618.8 L 196.4 165.1 Z" style="stroke-width: 0.1; stroke-linejoin: round; stroke: rgb(51, 51, 51); fill: rgb(255, 255, 255);"/>
  <path d="M 412.3 161.8 L 442 132.2 L 170 132.2 L 199.7 161.8 L 412.3 161.8 Z" style="stroke-width: 0.1; stroke-linejoin: round; stroke: rgb(51, 51, 51); fill: rgb(255, 255, 255);"/>
  <path d="M 201 166.5 L 201 617.4 L 411 617.4 L 411 166.5 L 201 166.5 Z" style="stroke-width: 0.1; stroke-linejoin: round; stroke: rgb(51, 51, 51); fill: rgb(255, 255, 255);"/>
</svg>