<svg version="1.1" xmlns="http://www.w3.org/2000/svg" xmlns:xlink="http://www.w3.org/1999/xlink" x="0px" y="0px"
	 viewBox="0 0 612 792" enable-background="new 0 0 612 792" xml:space="preserve">
<path d="M484.1,95.4c-0.1-1.2-1-2.2-2.3-2.2H130.1c-1.5,0.1-2.2,0.9-2.4,2.3v592.8c0.1,1.4,0.9,2.2,2.3,2.3h351.8
	c1.3,0,2.3-1.1,2.3-2.3v0V95.6v0C484.2,95.5,484.1,95.5,484.1,95.4z M201,166.5h210v450.9H201V166.5z M412.3,161.8H199.7L170,132.2
	h272L412.3,161.8z M196.4,165.1v453.7l-29.6,29.6V135.5L196.4,165.1z M199.7,622.1h212.7l29.6,29.6H170L199.7,622.1z M415.6,618.8
	V165.1l29.6-29.6v512.9L415.6,618.8z M446.6,127.5H165.4l-29.6-29.6h340.5L446.6,127.5z M162.1,130.8v522.3l-29.6,29.6V101.2
	L162.1,130.8z M165.4,656.4h281.3l29.6,29.6H135.7L165.4,656.4z M449.9,653.1V130.8l29.6-29.6v581.5L449.9,653.1z"/>
</svg>
