<svg version="1.1" xmlns="http://www.w3.org/2000/svg" xmlns:xlink="http://www.w3.org/1999/xlink" x="0px" y="0px"
	 viewBox="0 0 216 216" enable-background="new 0 0 216 216" xml:space="preserve">
<path d="M210.1,36.7c-0.1-0.1-0.2-0.2-0.1-0.4l-12.2-17.9c0,0-0.1,0-0.1-0.1c0-0.1,0-0.1-0.1-0.1c0,0,0-0.1,0-0.1L171.2,3.1
	c-0.2,0-0.4,0-0.5-0.1l-62.6-2c0,0-0.1,0-0.1,0l-62.6,2C45.2,3,45,3.1,44.8,3.1L18.5,18.2c0,0,0,0.1,0,0.1c-0.1,0-0.1,0-0.1,0.1
	c0,0-0.1,0-0.1,0.1L6,36.4c0,0.1,0,0.3-0.1,0.4L0.9,108c0,0,0,0,0,0c0,0,0,0,0,0l4.9,71.2c0.1,0.1,0.2,0.2,0.1,0.4l12.2,17.9
	c0,0.1,0.1,0,0.2,0.1c0.1,0.1,0,0.1,0.1,0.2l26.3,15.1c0.2,0,0.4,0.1,0.5,0.1l62.6,2c0,0,0,0,0.1,0l59-1.1c0.2-0.1,0.3-0.1,0.5-0.1
	l30-16c0,0,0,0,0,0c0.1,0,0.2-0.1,0.1-0.2c0,0,0.1,0,0.2-0.1l12.2-17.9c0-0.1,0-0.3,0.1-0.4l4.9-71.2c0,0,0,0,0,0c0,0,0,0,0,0
	L210.1,36.7z M19,172.5l16-10.2l-16.1,32.9L8.2,179.5L19,172.5z M55.9,30.5l0.9,2l-25.9-10L21,18.7L44.9,5.1L55.9,30.5z
	 M173.3,185.7l-16.6-7.3l-14.3-29l35.4,11l17.2,34.9L173.3,185.7z M108,2.8l48,31.3L108,60.3l-18.2-10L60.2,34.1L98.1,9.3L108,2.8z
	 M139.7,147.3l-31.8,6.6l-31.8-6.6l-2.3-8.6L65.8,108l8.1-30.7l2.3-8.6l31.8-6.6l31.8,6.6l2.3,8.6l8.1,30.7l-8.1,30.7L139.7,147.3z
	 M38.5,57.5l26.2,8.2l9.5,3l-5.5,20.7l-4.2,16.1l-2.4-4.3L38.5,57.5z M64.5,110.7l5.7,21.7l4,15.1l-35,10.8l13.3-25L64.5,110.7z
	 M141.8,147.4l7.7-29.3l2-7.4l25.3,47.6L141.8,147.4z M176.7,57.5l-25.3,47.9l-9.7-36.7l13-4.1L176.7,57.5z M140,67.1L110.4,61
	l45.1-24.6L149.6,48L140,67.1z M105.5,61l-29.6,6.1l-5.4-10.9l-9.8-19.8l40.2,22.1L105.5,61z M60.7,176.9l13.9-25.7l1.3-2.3
	l29.4,6.1L60.7,176.9z M110.6,155l29.4-6.1l13.8,28L110.6,155L110.6,155z M178.7,57.8l34.2,50.2l-34.2,49.9L152.2,108L178.7,57.8z
	 M169.1,58.1l-26.7,8.5l8.8-17.5l7.2-14.3l36.6-14.2l-17.2,34.8L169.1,58.1z M57.7,34.8l15.8,31.8L37.4,55.3l-2.7-5.8l-13.7-29
	L57.7,34.8z M36.5,57.8L63.7,108l-26.5,49.9L3.1,108l5.4-8.1L36.5,57.8z M38,160.4l35.4-11l-15.7,28.9L21,195.2l0.9-1.8L38,160.4z
	 M18.9,20.8L29,42.3l5.3,11.2L8.2,36.5L18.9,20.8z M108,213.1l-47.8-34.1l47.7-23.4l6.4,3.2l39.9,20.2l-3,2.2L108,213.1z
	 M155.4,180.5l10.3,31.8l-55,1L155.4,180.5z M197.1,195.2l-16.2-32.9l26.9,17.2L197.1,195.2z M212.8,104.5l-32.9-48.3l28.4-17.8
	L212.8,104.5z M180.9,53.5l13.8-27.8l2.4-4.9l10.7,15.8L180.9,53.5z M159.5,32.6l11.7-27.5L195,18.7L159.5,32.6z M166,12.1
	l-8.8,20.7L111.1,2.7l58.2,1.9L166,12.1z M105,2.7L59,32.8L46.8,4.5L105,2.7z M7.7,38.4l27.5,17.8L3.2,104.4L7.7,38.4z M3.2,111.5
	l32.8,48L11.8,175l-4,2.6L3.2,111.5z M46.8,185.3l9.9-4.6l-11.9,30.2l-23.9-13.7L46.8,185.3z M46.7,211.4l12.3-31l46.2,32.9
	L46.7,211.4z M167.6,211.8l-10.1-31.2l37.5,16.6L167.6,211.8z M208.3,177.6l-14-8.9l-14.4-9.2l32.9-48L208.3,177.6z"/>
</svg>
