<?xml version="1.0" encoding="utf-8"?>
<svg x="0px" y="0px" viewBox="0 0 216 216" xmlns="http://www.w3.org/2000/svg">
  <path d="M 208.3 177.6 L 212.8 111.5 L 179.9 159.5 L 194.3 168.7 L 208.3 177.6 Z" style="fill: rgb(255, 255, 255); stroke-width: 0.1; stroke-linejoin: round; stroke: rgb(51, 51, 51);"/>
  <path d="M 19 172.5 L 8.2 179.5 L 18.9 195.20000000000002 L 35 162.3 L 19 172.5 Z" style="fill: rgb(255, 255, 255); stroke-width: 0.1; stroke-linejoin: round; stroke: rgb(51, 51, 51);"/>
  <path d="M 55.9 30.5 L 44.9 5.1 L 21 18.7 L 30.9 22.5 L 56.8 32.5 L 55.9 30.5 Z" style="fill: rgb(255, 255, 255); stroke-width: 0.1; stroke-linejoin: round; stroke: rgb(51, 51, 51);"/>
  <path d="M 173.3 185.7 L 195 195.29999999999998 L 177.8 160.39999999999998 L 142.4 149.39999999999998 L 156.70000000000002 178.39999999999998 L 173.3 185.7 Z" style="fill: rgb(255, 255, 255); stroke-width: 0.1; stroke-linejoin: round; stroke: rgb(51, 51, 51);"/>
  <path d="M 108 2.8 L 98.1 9.3 L 60.2 34.1 L 89.8 50.3 L 108 60.3 L 156 34.1 L 108 2.8 Z" style="fill: rgb(255, 255, 255); stroke-width: 0.1; stroke-linejoin: round; stroke: rgb(51, 51, 51);"/>
  <path d="M 139.7 147.3 L 142.1 138.7 L 150.2 108 L 142.1 77.3 L 139.79999999999998 68.7 L 107.99999999999999 62.1 L 76.19999999999999 68.7 L 73.89999999999999 77.3 L 65.8 108 L 73.8 138.70000000000002 L 76.1 147.3 L 107.89999999999999 153.9 L 139.7 147.3 Z" style="fill: rgb(255, 255, 255); stroke-width: 0.1; stroke-linejoin: round; stroke: rgb(51, 51, 51);"/>
  <path d="M 38.5 57.5 L 62.1 101.2 L 64.5 105.5 L 68.7 89.4 L 74.2 68.7 L 64.7 65.7 L 38.5 57.5 Z" style="fill: rgb(255, 255, 255); stroke-width: 0.1; stroke-linejoin: round; stroke: rgb(51, 51, 51);"/>
  <path d="M 64.5 110.7 L 52.5 133.3 L 39.2 158.3 L 74.2 147.5 L 70.2 132.4 L 64.5 110.7 Z" style="fill: rgb(255, 255, 255); stroke-width: 0.1; stroke-linejoin: round; stroke: rgb(51, 51, 51);"/>
  <path d="M 141.8 147.4 L 176.8 158.3 L 151.5 110.7 L 149.5 118.10000000000001 L 141.8 147.4 Z" style="fill: rgb(255, 255, 255); stroke-width: 0.1; stroke-linejoin: round; stroke: rgb(51, 51, 51);"/>
  <path d="M 176.7 57.5 L 154.7 64.60000000000001 L 141.7 68.7 L 151.39999999999998 105.4 L 176.7 57.5 Z" style="fill: rgb(255, 255, 255); stroke-width: 0.1; stroke-linejoin: round; stroke: rgb(51, 51, 51);"/>
  <path d="M 140 67.1 L 149.6 48 L 155.5 36.4 L 110.4 61 L 140 67.1 Z" style="fill: rgb(255, 255, 255); stroke-width: 0.1; stroke-linejoin: round; stroke: rgb(51, 51, 51);"/>
  <path d="M 105.5 61 L 100.9 58.49999999999999 L 60.7 36.39999999999999 L 70.5 56.199999999999996 L 75.9 67.1 L 105.5 61 Z" style="fill: rgb(255, 255, 255); stroke-width: 0.1; stroke-linejoin: round; stroke: rgb(51, 51, 51);"/>
  <path d="M 60.7 176.9 L 105.30000000000001 155 L 75.9 148.9 L 74.60000000000001 151.20000000000002 L 60.7 176.9 Z" style="fill: rgb(255, 255, 255); stroke-width: 0.1; stroke-linejoin: round; stroke: rgb(51, 51, 51);"/>
  <path d="M 110.6 155 L 110.6 155 L 153.8 176.9 L 140 148.9 L 110.6 155 Z" style="fill: rgb(255, 255, 255); stroke-width: 0.1; stroke-linejoin: round; stroke: rgb(51, 51, 51);"/>
  <path d="M 178.7 57.8 L 152.2 108 L 178.7 157.9 L 212.89999999999998 108 L 178.7 57.8 Z" style="fill: rgb(255, 255, 255); stroke-width: 0.1; stroke-linejoin: round; stroke: rgb(51, 51, 51);"/>
  <path d="M 169.1 58.1 L 177.8 55.39999999999999 L 195 20.599999999999998 L 158.4 34.8 L 151.20000000000002 49.099999999999994 L 142.4 66.6 L 169.1 58.1 Z" style="fill: rgb(255, 255, 255); stroke-width: 0.1; stroke-linejoin: round; stroke: rgb(51, 51, 51);"/>
  <path d="M 57.7 34.8 L 20.999999999999996 20.5 L 34.699999999999996 49.5 L 37.4 55.3 L 73.5 66.6 L 57.7 34.8 Z" style="fill: rgb(255, 255, 255); stroke-width: 0.1; stroke-linejoin: round; stroke: rgb(51, 51, 51);"/>
  <path d="M 36.5 57.8 L 8.5 99.9 L 3.1 108 L 37.2 157.9 L 63.7 108 L 36.5 57.8 Z" style="fill: rgb(255, 255, 255); stroke-width: 0.1; stroke-linejoin: round; stroke: rgb(51, 51, 51);"/>
  <path d="M 38 160.4 L 21.9 193.39999999999998 L 21 195.2 L 57.7 178.3 L 73.4 149.4 L 38 160.4 Z" style="fill: rgb(255, 255, 255); stroke-width: 0.1; stroke-linejoin: round; stroke: rgb(51, 51, 51);"/>
  <path d="M 18.9 20.8 L 8.2 36.5 L 34.3 53.5 L 29 42.3 L 18.9 20.8 Z" style="fill: rgb(255, 255, 255); stroke-width: 0.1; stroke-linejoin: round; stroke: rgb(51, 51, 51);"/>
  <path d="M 108 213.1 L 151.20000000000002 181.19999999999996 L 154.20000000000002 178.99999999999997 L 114.30000000000001 158.79999999999998 L 107.9 155.6 L 60.2 179 L 108 213.1 Z" style="fill: rgb(255, 255, 255); stroke-width: 0.1; stroke-linejoin: round; stroke: rgb(51, 51, 51);"/>
  <path d="M 155.4 180.5 L 110.70000000000002 213.3 L 165.70000000000002 212.3 L 155.4 180.5 Z" style="fill: rgb(255, 255, 255); stroke-width: 0.1; stroke-linejoin: round; stroke: rgb(51, 51, 51);"/>
  <path d="M 197.1 195.2 L 207.8 179.49999999999997 L 180.9 162.29999999999998 L 197.1 195.2 Z" style="fill: rgb(255, 255, 255); stroke-width: 0.1; stroke-linejoin: round; stroke: rgb(51, 51, 51);"/>
  <path d="M 212.8 104.5 L 208.3 38.400000000000006 L 179.9 56.2 L 212.8 104.5 Z" style="fill: rgb(255, 255, 255); stroke-width: 0.1; stroke-linejoin: round; stroke: rgb(51, 51, 51);"/>
  <path d="M 180.9 53.5 L 207.8 36.599999999999994 L 197.10000000000002 20.799999999999997 L 194.70000000000002 25.7 L 180.9 53.5 Z" style="fill: rgb(255, 255, 255); stroke-width: 0.1; stroke-linejoin: round; stroke: rgb(51, 51, 51);"/>
  <path d="M 159.5 32.6 L 195 18.7 L 171.2 5.100000000000001 L 159.5 32.6 Z" style="fill: rgb(255, 255, 255); stroke-width: 0.1; stroke-linejoin: round; stroke: rgb(51, 51, 51);"/>
  <path d="M 166 12.1 L 169.3 4.6 L 111.1 2.7 L 157.2 32.8 L 166 12.1 Z" style="fill: rgb(255, 255, 255); stroke-width: 0.1; stroke-linejoin: round; stroke: rgb(51, 51, 51);"/>
  <path d="M 105 2.7 L 46.8 4.5 L 59 32.8 L 105 2.7 Z" style="fill: rgb(255, 255, 255); stroke-width: 0.1; stroke-linejoin: round; stroke: rgb(51, 51, 51);"/>
  <path d="M 7.7 38.4 L 3.2 104.4 L 35.2 56.2 L 7.7 38.4 Z" style="fill: rgb(255, 255, 255); stroke-width: 0.1; stroke-linejoin: round; stroke: rgb(51, 51, 51);"/>
  <path d="M 3.2 111.5 L 7.800000000000001 177.6 L 11.8 175 L 36 159.5 L 3.2 111.5 Z" style="fill: rgb(255, 255, 255); stroke-width: 0.1; stroke-linejoin: round; stroke: rgb(51, 51, 51);"/>
  <path d="M 46.8 185.3 L 20.9 197.20000000000002 L 44.8 210.9 L 56.699999999999996 180.70000000000002 L 46.8 185.3 Z" style="fill: rgb(255, 255, 255); stroke-width: 0.1; stroke-linejoin: round; stroke: rgb(51, 51, 51);"/>
  <path d="M 46.7 211.4 L 105.2 213.3 L 59 180.4 L 46.7 211.4 Z" style="fill: rgb(255, 255, 255); stroke-width: 0.1; stroke-linejoin: round; stroke: rgb(51, 51, 51);"/>
  <path d="M 167.6 211.8 L 195 197.20000000000002 L 157.5 180.60000000000002 L 167.6 211.8 Z" style="fill: rgb(255, 255, 255); stroke-width: 0.1; stroke-linejoin: round; stroke: rgb(51, 51, 51);"/>
</svg>