<?xml version="1.0" encoding="utf-8"?>
<svg x="0px" y="0px" viewBox="0 0 216 216" xmlns="http://www.w3.org/2000/svg">
  <path d="M 191.4 177.6 L 195.20000000000002 111.5 L 167.8 159.5 L 179.8 168.7 L 191.4 177.6 Z" style="stroke-linejoin: round; stroke-width: 0.1; stroke: rgb(51, 51, 51); fill: rgb(255, 255, 255);"/>
  <path d="M 33.9 172.5 L 24.900000000000006 179.50000000000003 L 33.800000000000004 195.20000000000002 L 47.2 162.3 L 33.9 172.5 Z" style="stroke-linejoin: round; stroke-width: 0.1; stroke: rgb(51, 51, 51); fill: rgb(255, 255, 255);"/>
  <path d="M 64.6 30.5 L 55.5 5.1 L 35.599999999999994 18.7 L 43.8 22.5 L 65.3 32.5 L 64.6 30.5 Z" style="stroke-linejoin: round; stroke-width: 0.1; stroke: rgb(51, 51, 51); fill: rgb(255, 255, 255);"/>
  <path d="M 162.3 185.7 L 180.4 195.29999999999998 L 166.1 160.39999999999998 L 136.6 149.39999999999998 L 148.5 178.39999999999998 L 162.3 185.7 Z" style="stroke-linejoin: round; stroke-width: 0.1; stroke: rgb(51, 51, 51); fill: rgb(255, 255, 255);"/>
  <path d="M 108 2.8 L 99.8 9.3 L 68.2 34.1 L 92.8 50.3 L 108 60.3 L 148 34.1 L 108 2.8 Z" style="stroke-linejoin: round; stroke-width: 0.1; stroke: rgb(51, 51, 51); fill: rgb(255, 255, 255);"/>
  <path d="M 134.4 147.3 L 136.3 138.7 L 143 108 L 136.3 77.3 L 134.4 68.7 L 107.9 62.1 L 81.50000000000001 68.7 L 79.60000000000001 77.3 L 72.9 108 L 79.6 138.70000000000002 L 81.5 147.3 L 107.9 153.9 L 134.4 147.3 Z" style="stroke-linejoin: round; stroke-width: 0.1; stroke: rgb(51, 51, 51); fill: rgb(255, 255, 255);"/>
  <path d="M 50.2 57.5 L 69.9 101.10000000000001 L 71.9 105.4 L 75.4 89.3 L 79.9 68.6 L 72 65.6 L 50.2 57.5 Z" style="stroke-linejoin: round; stroke-width: 0.1; stroke: rgb(51, 51, 51); fill: rgb(255, 255, 255);"/>
  <path d="M 71.8 110.7 L 61.89999999999999 133.3 L 50.79999999999999 158.3 L 79.89999999999999 147.5 L 76.6 132.4 L 71.8 110.7 Z" style="stroke-linejoin: round; stroke-width: 0.1; stroke: rgb(51, 51, 51); fill: rgb(255, 255, 255);"/>
  <path d="M 136.1 147.4 L 165.1 158.3 L 144.1 110.7 L 142.5 118.10000000000001 L 136.1 147.4 Z" style="stroke-linejoin: round; stroke-width: 0.1; stroke: rgb(51, 51, 51); fill: rgb(255, 255, 255);"/>
  <path d="M 165.2 57.5 L 146.9 64.60000000000001 L 136.1 68.7 L 144.2 105.4 L 165.2 57.5 Z" style="stroke-linejoin: round; stroke-width: 0.1; stroke: rgb(51, 51, 51); fill: rgb(255, 255, 255);"/>
  <path d="M 134.6 67.1 L 142.7 48 L 147.5 36.4 L 110 61 L 134.6 67.1 Z" style="stroke-linejoin: round; stroke-width: 0.1; stroke: rgb(51, 51, 51); fill: rgb(255, 255, 255);"/>
  <path d="M 105.9 61 L 102.10000000000001 58.49999999999999 L 68.60000000000001 36.39999999999999 L 76.80000000000001 56.199999999999996 L 81.30000000000001 67.1 L 105.9 61 Z" style="stroke-linejoin: round; stroke-width: 0.1; stroke: rgb(51, 51, 51); fill: rgb(255, 255, 255);"/>
  <path d="M 68.7 176.9 L 105.8 155 L 81.3 148.9 L 80.3 151.20000000000002 L 68.7 176.9 Z" style="stroke-linejoin: round; stroke-width: 0.1; stroke: rgb(51, 51, 51); fill: rgb(255, 255, 255);"/>
  <path d="M 110.1 155 L 110.1 155 L 146.1 176.9 L 134.6 148.9 L 110.1 155 Z" style="stroke-linejoin: round; stroke-width: 0.1; stroke: rgb(51, 51, 51); fill: rgb(255, 255, 255);"/>
  <path d="M 166.8 57.8 L 144.8 108 L 166.8 157.9 L 195.3 108 L 166.8 57.8 Z" style="stroke-linejoin: round; stroke-width: 0.1; stroke: rgb(51, 51, 51); fill: rgb(255, 255, 255);"/>
  <path d="M 158.8 58.1 L 166.10000000000002 55.39999999999999 L 180.40000000000003 20.599999999999998 L 150.00000000000003 34.8 L 144.00000000000003 49.099999999999994 L 136.60000000000002 66.6 L 158.8 58.1 Z" style="stroke-linejoin: round; stroke-width: 0.1; stroke: rgb(51, 51, 51); fill: rgb(255, 255, 255);"/>
  <path d="M 66.2 34.8 L 35.50000000000001 20.5 L 46.900000000000006 49.5 L 49.2 55.3 L 79.3 66.6 L 66.2 34.8 Z" style="stroke-linejoin: round; stroke-width: 0.1; stroke: rgb(51, 51, 51); fill: rgb(255, 255, 255);"/>
  <path d="M 48.5 57.8 L 25.2 99.9 L 20.7 108 L 49 157.9 L 71.1 108 L 48.5 57.8 Z" style="stroke-linejoin: round; stroke-width: 0.1; stroke: rgb(51, 51, 51); fill: rgb(255, 255, 255);"/>
  <path d="M 49.8 160.4 L 36.400000000000006 193.4 L 35.7 195.20000000000002 L 66.2 178.3 L 79.3 149.4 L 49.8 160.4 Z" style="stroke-linejoin: round; stroke-width: 0.1; stroke: rgb(51, 51, 51); fill: rgb(255, 255, 255);"/>
  <path d="M 33.8 20.8 L 24.9 36.5 L 46.699999999999996 53.5 L 42.3 42.3 L 33.8 20.8 Z" style="stroke-linejoin: round; stroke-width: 0.1; stroke: rgb(51, 51, 51); fill: rgb(255, 255, 255);"/>
  <path d="M 108 213.1 L 144 181.19999999999996 L 146.5 178.99999999999997 L 113.3 158.79999999999998 L 108 155.6 L 68.3 179 L 108 213.1 Z" style="stroke-linejoin: round; stroke-width: 0.1; stroke: rgb(51, 51, 51); fill: rgb(255, 255, 255);"/>
  <path d="M 147.4 180.5 L 110.3 213.3 L 156 212.3 L 147.4 180.5 Z" style="stroke-linejoin: round; stroke-width: 0.1; stroke: rgb(51, 51, 51); fill: rgb(255, 255, 255);"/>
  <path d="M 182.2 195.2 L 191.1 179.49999999999997 L 168.7 162.29999999999998 L 182.2 195.2 Z" style="stroke-linejoin: round; stroke-width: 0.1; stroke: rgb(51, 51, 51); fill: rgb(255, 255, 255);"/>
  <path d="M 195.2 104.5 L 191.39999999999998 38.400000000000006 L 167.79999999999998 56.2 L 195.2 104.5 Z" style="stroke-linejoin: round; stroke-width: 0.1; stroke: rgb(51, 51, 51); fill: rgb(255, 255, 255);"/>
  <path d="M 168.7 53.5 L 191.1 36.599999999999994 L 182.2 20.799999999999997 L 180.2 25.7 L 168.7 53.5 Z" style="stroke-linejoin: round; stroke-width: 0.1; stroke: rgb(51, 51, 51); fill: rgb(255, 255, 255);"/>
  <path d="M 150.8 32.6 L 180.3 18.8 L 160.5 5.100000000000001 L 150.8 32.6 Z" style="stroke-linejoin: round; stroke-width: 0.1; stroke: rgb(51, 51, 51); fill: rgb(255, 255, 255);"/>
  <path d="M 156.3 12.1 L 159 4.5 L 110.5 2.7 L 149 32.8 L 156.3 12.1 Z" style="stroke-linejoin: round; stroke-width: 0.1; stroke: rgb(51, 51, 51); fill: rgb(255, 255, 255);"/>
  <path d="M 105.5 2.7 L 57 4.5 L 67.2 32.8 L 105.5 2.7 Z" style="stroke-linejoin: round; stroke-width: 0.1; stroke: rgb(51, 51, 51); fill: rgb(255, 255, 255);"/>
  <path d="M 24.6 38.4 L 20.8 104.4 L 47.5 56.2 L 24.6 38.4 Z" style="stroke-linejoin: round; stroke-width: 0.1; stroke: rgb(51, 51, 51); fill: rgb(255, 255, 255);"/>
  <path d="M 20.8 111.5 L 24.599999999999998 177.6 L 27.9 175 L 48.1 159.5 L 20.8 111.5 Z" style="stroke-linejoin: round; stroke-width: 0.1; stroke: rgb(51, 51, 51); fill: rgb(255, 255, 255);"/>
  <path d="M 57.1 185.3 L 35.60000000000001 197.20000000000002 L 55.50000000000001 210.9 L 65.4 180.70000000000002 L 57.1 185.3 Z" style="stroke-linejoin: round; stroke-width: 0.1; stroke: rgb(51, 51, 51); fill: rgb(255, 255, 255);"/>
  <path d="M 57 211.4 L 105.6 213.3 L 67.2 180.4 L 57 211.4 Z" style="stroke-linejoin: round; stroke-width: 0.1; stroke: rgb(51, 51, 51); fill: rgb(255, 255, 255);"/>
  <path d="M 157.6 211.8 L 180.39999999999998 197.20000000000002 L 149.2 180.60000000000002 L 157.6 211.8 Z" style="stroke-linejoin: round; stroke-width: 0.1; stroke: rgb(51, 51, 51); fill: rgb(255, 255, 255);"/>
</svg>