<svg version="1.1" xmlns="http://www.w3.org/2000/svg" xmlns:xlink="http://www.w3.org/1999/xlink" x="0px" y="0px"
	 viewBox="0 0 216 216" enable-background="new 0 0 216 216" xml:space="preserve">
<path d="M193,36.7c-0.1-0.1-0.1-0.2-0.1-0.4l-10.1-17.9c0,0-0.1,0-0.1-0.1c0-0.1,0-0.1-0.1-0.1c0,0,0-0.1,0-0.1L160.6,3.1
	c-0.2,0-0.3,0-0.4-0.1l-52.1-2c0,0,0,0-0.1,0l-52.1,2c-0.1,0.1-0.3,0.2-0.4,0.1L33.5,18.2c0,0,0,0.1,0,0.1c-0.1,0-0.1,0-0.1,0.1
	c0,0-0.1,0-0.1,0.1L23.1,36.4c0,0.1,0,0.3-0.1,0.4L18.9,108c0,0,0,0,0,0c0,0,0,0,0,0l4.1,71.2c0.1,0.1,0.1,0.2,0.1,0.4l10.1,17.9
	c0,0.1,0.1,0,0.1,0.1c0.1,0.1,0,0.1,0.1,0.2l21.9,15.1c0.2,0,0.3,0.1,0.4,0.1l52.1,2c0,0,0,0,0.1,0l49.1-1.1
	c0.1-0.1,0.3-0.1,0.4-0.1l25-16c0,0,0,0,0,0c0.1,0,0.1-0.1,0.1-0.2c0,0,0.1,0,0.1-0.1l10.1-17.9c0-0.1,0-0.3,0.1-0.4l4.1-71.2
	c0,0,0,0,0,0c0,0,0,0,0,0L193,36.7z M33.9,172.5l13.3-10.2l-13.4,32.9l-8.9-15.7L33.9,172.5z M64.6,30.5l0.7,2l-21.5-10l-8.2-3.8
	L55.5,5.1L64.6,30.5z M162.3,185.7l-13.8-7.3l-11.9-29l29.5,11l14.3,34.9L162.3,185.7z M108,2.8l40,31.3l-40,26.2l-15.2-10
	L68.2,34.1L99.8,9.3L108,2.8z M134.4,147.3l-26.5,6.6l-26.4-6.6l-1.9-8.6L72.9,108l6.7-30.7l1.9-8.6l26.4-6.6l26.5,6.6l1.9,8.6
	L143,108l-6.7,30.7L134.4,147.3z M50.2,57.5L72,65.6l7.9,3l-4.5,20.7l-3.5,16.1l-2-4.3L50.2,57.5z M71.8,110.7l4.8,21.7l3.3,15.1
	l-29.1,10.8l11.1-25L71.8,110.7z M136.1,147.4l6.4-29.3l1.6-7.4l21,47.6L136.1,147.4z M165.2,57.5l-21,47.9l-8.1-36.7l10.8-4.1
	L165.2,57.5z M134.6,67.1L110,61l37.5-24.6L142.7,48L134.6,67.1z M105.9,61l-24.6,6.1l-4.5-10.9l-8.2-19.8l33.5,22.1L105.9,61z
	 M68.7,176.9l11.6-25.7l1-2.3l24.5,6.1L68.7,176.9z M110.1,155l24.5-6.1l11.5,28L110.1,155L110.1,155z M166.8,57.8l28.5,50.2
	l-28.5,49.9l-22-49.9L166.8,57.8z M158.8,58.1l-22.2,8.5l7.4-17.5l6-14.3l30.4-14.2l-14.3,34.8L158.8,58.1z M66.2,34.8l13.1,31.8
	L49.2,55.3l-2.3-5.8l-11.4-29L66.2,34.8z M48.5,57.8L71.1,108L49,157.9L20.7,108l4.5-8.1L48.5,57.8z M49.8,160.4l29.5-11l-13.1,28.9
	l-30.5,16.9l0.7-1.8L49.8,160.4z M33.8,20.8l8.5,21.5l4.4,11.2L24.9,36.5L33.8,20.8z M108,213.1l-39.7-34.1l39.7-23.4l5.3,3.2
	l33.2,20.2l-2.5,2.2L108,213.1z M147.4,180.5l8.6,31.8l-45.7,1L147.4,180.5z M182.2,195.2l-13.5-32.9l22.4,17.2L182.2,195.2z
	 M195.2,104.5l-27.4-48.3l23.6-17.8L195.2,104.5z M168.7,53.5l11.5-27.8l2-4.9l8.9,15.8L168.7,53.5z M150.8,32.6l9.7-27.5l19.8,13.7
	L150.8,32.6z M156.3,12.1L149,32.8L110.5,2.7L159,4.5L156.3,12.1z M105.5,2.7L67.2,32.8L57,4.5L105.5,2.7z M24.6,38.4l22.9,17.8
	l-26.7,48.2L24.6,38.4z M20.8,111.5l27.3,48L27.9,175l-3.3,2.6L20.8,111.5z M57.1,185.3l8.3-4.6l-9.9,30.2l-19.9-13.7L57.1,185.3z
	 M57,211.4l10.2-31l38.4,32.9L57,211.4z M157.6,211.8l-8.4-31.2l31.2,16.6L157.6,211.8z M191.4,177.6l-11.6-8.9l-12-9.2l27.4-48
	L191.4,177.6z"/>
</svg>
