<svg version="1.1" xmlns="http://www.w3.org/2000/svg" xmlns:xlink="http://www.w3.org/1999/xlink" x="0px" y="0px"
	 viewBox="0 0 216 216" enable-background="new 0 0 216 216" xml:space="preserve">
<path d="M175,19.7c-0.1-0.2-0.2-0.4-0.2-0.6l-18-18c-0.2,0-0.4-0.1-0.6-0.2H59.8c-0.2,0.1-0.4,0.2-0.6,0.2l-18,18
	c0,0.2-0.1,0.4-0.2,0.6v176.5c0.1,0.2,0.2,0.4,0.2,0.6l18,18c0.2,0.2,0.4,0.2,0.6,0.2h96.2c0.2,0,0.4-0.1,0.6-0.2l18-18
	c0-0.2,0.1-0.4,0.2-0.6V19.7z M42.6,21.3l6.7,4.8v163.9l-6.7,4.8V21.3z M173,19.6l-3.8,2.7l-3.2,2.3l-15.3-15l5.5-6.8L173,19.6z
	 M78.8,190.6l-10.6-12.9V38.3l10.6-12.9h58.4l10.6,12.9v139.4l-10.6,12.9H78.8z M60.1,33.8l6.5,4.6v139.2l-6.3,4.4l-0.1-74.8
	L60.1,33.8z M67.3,179l10.1,12.3l-4.2,5l-12.5-12.7L67.3,179z M77.4,24.6L67.3,37l-6.7-4.8l12.7-12.7L77.4,24.6z M155.7,184
	l-12.9,12.5l-4.2-5.2l10.1-12.3l1.9,1.4L155.7,184z M142.7,19.6l12.8,12.5l-6.8,4.9l-10.1-12.3l2.8-3.4L142.7,19.6z M156.2,182.4
	l-6.8-4.9V38.4l6.6-4.7l0.1,74.5L156.2,182.4z M149.7,10.9l15,14.7l-7.9,5.6l-13.2-12.8l2.2-2.8L149.7,10.9z M141,19.2l-3.8,4.7
	H78.8L75,19.1l33,0L141,19.2z M75,196.7l3.8-4.6h58.4l3.9,4.8L97,196.8L75,196.7z M143.8,197.8l2.2-2.1L157,185l7.7,5.5l-14.8,14.9
	L143.8,197.8z M157.7,183.5l-0.1-75.8l-0.1-75.2l7.7-5.4v161.7l-0.2-0.1L157.7,183.5z M148,10.5l-1.7,2l-4.2,5.1l-34.3,0l-34.3,0
	l-5.8-7.2l40.1,0L148,10.5z M58.6,32.7l0.1,75.5l0.1,75l-8,5.7V27.2l0.8,0.6L58.6,32.7z M51.2,190.5l4.3-3.1l4-2.8l12.8,13l-2.1,2.6
	l-4.3,5.4l-8.8-9.1L51.2,190.5z M67.5,206l6.2-7.7l34.8,0.1l33.9,0.1l0.3,0.4l5.6,6.9l-40.2,0.1L67.5,206z M149.3,8.9l-41.3,0
	l-41.3,0l-1-1.3l-4.1-5.1h93L149.3,8.9z M66.2,10.8l5.2,6.5l0.8,1l-13,13l-5.4-3.8l-2.7-1.9l9.5-9.4L66.2,10.8z M66.3,207.6
	l41.4-0.1l41.8-0.1l1.1,1.3l4,4.9H61.5L66.3,207.6z M156.2,213.1l-5.3-6.6l15.1-15.2l7,5L156.2,213.1z M166.7,189.9V26.1l3.9-2.8
	l2.8-2v173.5l-2.8-2L166.7,189.9z M59.8,2.9l5.4,6.7l-5.6,5.5L50,24.6l-7-5L59.8,2.9z M43.7,195.9l6.2-4.5l14.9,15.4l-5.1,6.3
	L43,196.4L43.7,195.9z"/>
</svg>
