<?xml version="1.0" encoding="utf-8"?>
<svg x="0px" y="0px" viewBox="0 0 216 216" xmlns="http://www.w3.org/2000/svg">
  <path d="M 43.7 195.9 L 43 196.4 L 59.70000000000001 213.10000000000002 L 64.80000000000001 206.8 L 49.900000000000006 191.4 L 43.7 195.9 Z" style="stroke: rgb(51, 51, 51); stroke-width: 0.1; stroke-linejoin: round; fill: rgb(255, 255, 255);"/>
  <path d="M 42.6 21.3 L 42.6 194.8 L 49.300000000000004 190 L 49.300000000000004 26.1 L 42.6 21.3 Z" style="stroke: rgb(51, 51, 51); stroke-width: 0.1; stroke-linejoin: round; fill: rgb(255, 255, 255);"/>
  <path d="M 173 19.6 L 156.2 2.8000000000000016 L 150.7 9.600000000000001 L 166 24.6 L 169.2 22.3 L 173 19.6 Z" style="stroke: rgb(51, 51, 51); stroke-width: 0.1; stroke-linejoin: round; fill: rgb(255, 255, 255);"/>
  <path d="M 78.8 190.6 L 137.2 190.6 L 147.79999999999998 177.7 L 147.79999999999998 38.3 L 137.2 25.4 L 78.8 25.4 L 68.2 38.3 L 68.2 177.7 L 78.8 190.6 Z" style="stroke: rgb(51, 51, 51); stroke-width: 0.1; stroke-linejoin: round; fill: rgb(255, 255, 255);"/>
  <path d="M 60.1 33.8 L 60.199999999999996 107.2 L 60.3 182 L 66.6 177.6 L 66.6 38.4 L 60.1 33.8 Z" style="stroke: rgb(51, 51, 51); stroke-width: 0.1; stroke-linejoin: round; fill: rgb(255, 255, 255);"/>
  <path d="M 67.3 179 L 60.69999999999999 183.60000000000002 L 73.19999999999999 196.3 L 77.39999999999999 191.3 L 67.3 179 Z" style="stroke: rgb(51, 51, 51); stroke-width: 0.1; stroke-linejoin: round; fill: rgb(255, 255, 255);"/>
  <path d="M 77.4 24.6 L 73.3 19.500000000000004 L 60.599999999999994 32.2 L 67.3 37 L 77.4 24.6 Z" style="stroke: rgb(51, 51, 51); stroke-width: 0.1; stroke-linejoin: round; fill: rgb(255, 255, 255);"/>
  <path d="M 155.7 184 L 150.6 180.4 L 148.7 179 L 138.6 191.3 L 142.79999999999998 196.5 L 155.7 184 Z" style="stroke: rgb(51, 51, 51); stroke-width: 0.1; stroke-linejoin: round; fill: rgb(255, 255, 255);"/>
  <path d="M 142.7 19.6 L 141.4 21.3 L 138.6 24.7 L 148.7 37 L 155.5 32.1 L 142.7 19.6 Z" style="stroke: rgb(51, 51, 51); stroke-width: 0.1; stroke-linejoin: round; fill: rgb(255, 255, 255);"/>
  <path d="M 156.2 182.4 L 156.09999999999997 108.19999999999999 L 155.99999999999997 33.699999999999996 L 149.39999999999998 38.4 L 149.39999999999998 177.5 L 156.2 182.4 Z" style="stroke: rgb(51, 51, 51); stroke-width: 0.1; stroke-linejoin: round; fill: rgb(255, 255, 255);"/>
  <path d="M 149.7 10.9 L 145.79999999999998 15.600000000000001 L 143.6 18.400000000000002 L 156.79999999999998 31.200000000000003 L 164.7 25.6 L 149.7 10.9 Z" style="stroke: rgb(51, 51, 51); stroke-width: 0.1; stroke-linejoin: round; fill: rgb(255, 255, 255);"/>
  <path d="M 141 19.2 L 108 19.1 L 75 19.1 L 78.8 23.9 L 137.2 23.9 L 141 19.2 Z" style="stroke: rgb(51, 51, 51); stroke-width: 0.1; stroke-linejoin: round; fill: rgb(255, 255, 255);"/>
  <path d="M 75 196.7 L 97 196.8 L 141.1 196.9 L 137.2 192.1 L 78.8 192.1 L 75 196.7 Z" style="stroke: rgb(51, 51, 51); stroke-width: 0.1; stroke-linejoin: round; fill: rgb(255, 255, 255);"/>
  <path d="M 143.8 197.8 L 149.89999999999998 205.4 L 164.7 190.5 L 157 185 L 146 195.70000000000002 L 143.8 197.8 Z" style="stroke: rgb(51, 51, 51); stroke-width: 0.1; stroke-linejoin: round; fill: rgb(255, 255, 255);"/>
  <path d="M 157.7 183.5 L 165 188.7 L 165.2 188.79999999999998 L 165.2 27.1 L 157.5 32.5 L 157.6 107.7 L 157.7 183.5 Z" style="stroke: rgb(51, 51, 51); stroke-width: 0.1; stroke-linejoin: round; fill: rgb(255, 255, 255);"/>
  <path d="M 148 10.5 L 107.80000000000004 10.400000000000002 L 67.70000000000003 10.400000000000002 L 73.50000000000003 17.6 L 107.80000000000003 17.6 L 142.10000000000002 17.6 L 146.3 12.5 L 148 10.5 Z" style="stroke: rgb(51, 51, 51); stroke-width: 0.1; stroke-linejoin: round; fill: rgb(255, 255, 255);"/>
  <path d="M 58.6 32.7 L 51.6 27.8 L 50.800000000000004 27.2 L 50.800000000000004 188.89999999999998 L 58.800000000000004 183.2 L 58.7 108.2 L 58.6 32.7 Z" style="stroke: rgb(51, 51, 51); stroke-width: 0.1; stroke-linejoin: round; fill: rgb(255, 255, 255);"/>
  <path d="M 51.2 190.5 L 57.10000000000001 196.5 L 65.9 205.6 L 70.2 200.2 L 72.3 197.6 L 59.5 184.6 L 55.5 187.4 L 51.2 190.5 Z" style="stroke: rgb(51, 51, 51); stroke-width: 0.1; stroke-linejoin: round; fill: rgb(255, 255, 255);"/>
  <path d="M 67.5 206 L 108.10000000000001 205.9 L 148.3 205.8 L 142.70000000000002 198.9 L 142.4 198.5 L 108.5 198.4 L 73.7 198.3 L 67.5 206 Z" style="stroke: rgb(51, 51, 51); stroke-width: 0.1; stroke-linejoin: round; fill: rgb(255, 255, 255);"/>
  <path d="M 149.3 8.9 L 154.60000000000002 2.500000000000001 L 61.600000000000016 2.500000000000001 L 65.70000000000002 7.6000000000000005 L 66.70000000000002 8.9 L 108.00000000000001 8.9 L 149.3 8.9 Z" style="stroke: rgb(51, 51, 51); stroke-width: 0.1; stroke-linejoin: round; fill: rgb(255, 255, 255);"/>
  <path d="M 66.2 10.8 L 60.6 16.200000000000003 L 51.1 25.6 L 53.800000000000004 27.5 L 59.2 31.3 L 72.2 18.3 L 71.4 17.3 L 66.2 10.8 Z" style="stroke: rgb(51, 51, 51); stroke-width: 0.1; stroke-linejoin: round; fill: rgb(255, 255, 255);"/>
  <path d="M 66.3 207.6 L 61.5 213.60000000000002 L 154.6 213.60000000000002 L 150.6 208.70000000000002 L 149.5 207.4 L 107.69999999999999 207.5 L 66.3 207.6 Z" style="stroke: rgb(51, 51, 51); stroke-width: 0.1; stroke-linejoin: round; fill: rgb(255, 255, 255);"/>
  <path d="M 156.2 213.1 L 172.99999999999997 196.3 L 165.99999999999997 191.3 L 150.89999999999998 206.5 L 156.2 213.1 Z" style="stroke: rgb(51, 51, 51); stroke-width: 0.1; stroke-linejoin: round; fill: rgb(255, 255, 255);"/>
  <path d="M 166.7 189.9 L 170.6 192.8 L 173.4 194.8 L 173.4 21.3 L 170.6 23.3 L 166.7 26.1 L 166.7 189.9 Z" style="stroke: rgb(51, 51, 51); stroke-width: 0.1; stroke-linejoin: round; fill: rgb(255, 255, 255);"/>
  <path d="M 59.8 2.9 L 43 19.6 L 50 24.6 L 59.6 15.1 L 65.2 9.6 L 59.8 2.9 Z" style="stroke: rgb(51, 51, 51); stroke-width: 0.1; stroke-linejoin: round; fill: rgb(255, 255, 255);"/>
</svg>