<?xml version="1.0" encoding="utf-8"?>
<svg x="0px" y="0px" viewBox="0 0 216 216" xmlns="http://www.w3.org/2000/svg">
  <path d="M 5.4 51.6 C 4.6 56.2 1.5 77 3.6 87.3 L 28.4 60 L 16.1 55.5 L 5.4 51.6 Z" style="fill: rgb(255, 255, 255); stroke-width: 0.1; stroke: rgb(51, 51, 51); stroke-linecap: round; stroke-linejoin: round;"/>
  <path d="M 5.7 50.1 L 28.4 58.3 L 28.599999999999998 58.4 L 20.4 25.6 C 17.3 30 7.800000000000001 43.7 5.7 50.1 Z" style="fill: rgb(255, 255, 255); stroke-width: 0.1; stroke: rgb(51, 51, 51); stroke-linecap: round; stroke-linejoin: round;"/>
  <path d="M 187.6 58.3 L 210.29999999999998 50.1 C 208.2 43.7 198.7 30 195.6 25.6 L 187.4 58.4 L 187.6 58.3 Z" style="fill: rgb(255, 255, 255); stroke-width: 0.1; stroke: rgb(51, 51, 51); stroke-linecap: round; stroke-linejoin: round;"/>
  <path d="M 170.7 152.4 L 173.1 143.4 L 179.9 118.5 L 156.8 136 L 119 178.3 L 147.2 164.20000000000002 L 170.7 152.4 Z" style="fill: rgb(255, 255, 255); stroke-width: 0.1; stroke: rgb(51, 51, 51); stroke-linecap: round; stroke-linejoin: round;"/>
  <path d="M 174.5 90.6 L 162.1 122.69999999999999 L 158 133.2 L 180.4 116.19999999999999 L 174.5 90.6 Z" style="fill: rgb(255, 255, 255); stroke-width: 0.1; stroke: rgb(51, 51, 51); stroke-linecap: round; stroke-linejoin: round;"/>
  <path d="M 96.5 175.3 L 100.3 179.4 L 107.1 165.4 L 64 138.9 L 96.5 175.3 Z" style="fill: rgb(255, 255, 255); stroke-width: 0.1; stroke: rgb(51, 51, 51); stroke-linecap: round; stroke-linejoin: round;"/>
  <path d="M 35.7 116.2 L 42.5 121.39999999999999 L 58.1 133.2 L 54 122.69999999999999 L 41.6 90.6 L 35.7 116.2 Z" style="fill: rgb(255, 255, 255); stroke-width: 0.1; stroke: rgb(51, 51, 51); stroke-linecap: round; stroke-linejoin: round;"/>
  <path d="M 169.7 98.7 L 173.8 87.9 L 166.5 53 L 108 50.1 L 49.5 53 L 42.3 87.9 L 46.5 98.7 L 60.5 135 L 108.1 164.3 L 155.7 135 L 169.7 98.7 Z" style="fill: rgb(255, 255, 255); stroke-width: 0.1; stroke: rgb(51, 51, 51); stroke-linecap: round; stroke-linejoin: round;"/>
  <path d="M 115.9 179.4 L 146.70000000000002 145.1 L 152.20000000000002 138.9 L 140.60000000000002 146 L 109.10000000000001 165.4 L 115.9 179.4 Z" style="fill: rgb(255, 255, 255); stroke-width: 0.1; stroke: rgb(51, 51, 51); stroke-linecap: round; stroke-linejoin: round;"/>
  <path d="M 152.9 50.7 L 164.79999999999998 51.2 L 151.7 41.00000000000001 L 114.2 48.800000000000004 L 152.9 50.7 Z" style="fill: rgb(255, 255, 255); stroke-width: 0.1; stroke: rgb(51, 51, 51); stroke-linecap: round; stroke-linejoin: round;"/>
  <path d="M 88.3 49.5 L 101.89999999999999 48.89999999999999 L 64.39999999999999 41.099999999999994 L 51.3 51.3 L 88.3 49.5 Z" style="fill: rgb(255, 255, 255); stroke-width: 0.1; stroke: rgb(51, 51, 51); stroke-linecap: round; stroke-linejoin: round;"/>
  <path d="M 167.6 51.5 L 185.79999999999998 58.6 L 194.2 25 L 153.4 40.5 L 167.6 51.5 Z" style="fill: rgb(255, 255, 255); stroke-width: 0.1; stroke: rgb(51, 51, 51); stroke-linecap: round; stroke-linejoin: round;"/>
  <path d="M 30.8 60.1 L 39.7 81.7 L 41.2 85.4 L 47.900000000000006 53.5 L 30.8 60.1 Z" style="fill: rgb(255, 255, 255); stroke-width: 0.1; stroke: rgb(51, 51, 51); stroke-linecap: round; stroke-linejoin: round;"/>
  <path d="M 4.3 88.8 L 34.4 115.1 L 40.6 88 L 29.5 61 L 4.3 88.8 Z" style="fill: rgb(255, 255, 255); stroke-width: 0.1; stroke: rgb(51, 51, 51); stroke-linecap: round; stroke-linejoin: round;"/>
  <path d="M 45.5 152.4 L 54.39999999999999 156.9 L 97.1 178.3 L 59.300000000000004 136 L 36.2 118.5 L 45.5 152.4 Z" style="fill: rgb(255, 255, 255); stroke-width: 0.1; stroke: rgb(51, 51, 51); stroke-linecap: round; stroke-linejoin: round;"/>
  <path d="M 108.1 166.9 L 101.3 180.9 L 108.1 202.20000000000002 L 114.89999999999999 180.9 L 108.1 166.9 Z" style="fill: rgb(255, 255, 255); stroke-width: 0.1; stroke: rgb(51, 51, 51); stroke-linecap: round; stroke-linejoin: round;"/>
  <path d="M 174.9 85.3 L 176.4 81.6 L 185.3 60 L 168.20000000000002 53.4 L 174.9 85.3 Z" style="fill: rgb(255, 255, 255); stroke-width: 0.1; stroke: rgb(51, 51, 51); stroke-linecap: round; stroke-linejoin: round;"/>
  <path d="M 143.9 41.1 L 108.1 41.39999999999999 C 108.1 41.39999999999999 108.1 41.39999999999999 108.1 41.39999999999999 L 72.2 41.099999999999994 L 73.10000000000001 41.3 L 108.10000000000001 48.5 L 136.8 42.6 L 143.9 41.1 Z" style="fill: rgb(255, 255, 255); stroke-width: 0.1; stroke: rgb(51, 51, 51); stroke-linecap: round; stroke-linejoin: round;"/>
  <path d="M 62.7 40.5 L 21.9 25 L 30.3 58.6 L 48.5 51.5 L 62.7 40.5 Z" style="fill: rgb(255, 255, 255); stroke-width: 0.1; stroke: rgb(51, 51, 51); stroke-linecap: round; stroke-linejoin: round;"/>
  <path d="M 116 182.3 L 109.5 202.70000000000002 L 124.7 191.8 L 120.2 186.9 L 116 182.3 Z" style="fill: rgb(255, 255, 255); stroke-width: 0.1; stroke: rgb(51, 51, 51); stroke-linecap: round; stroke-linejoin: round;"/>
  <path d="M 181.8 115.1 L 210.5 90.10000000000001 L 211.9 88.9 L 204 80.2 L 186.60000000000002 61 L 177.3 83.5 L 175.5 88 L 181.8 115.1 Z" style="fill: rgb(255, 255, 255); stroke-width: 0.1; stroke: rgb(51, 51, 51); stroke-linecap: round; stroke-linejoin: round;"/>
  <path d="M 18.7 120.5 L 21.400000000000002 123.8 C 21.5 123.9 21.7 124 21.8 124.2 L 22.6 123.7 L 33.7 116.5 L 4.800000000000001 91.3 C 5.1000000000000005 92.4 5.4 93.4 5.800000000000001 94.5 L 7.1000000000000005 98.2 C 7.2 98.5 7.300000000000001 98.8 7.4 99 L 10.3 105.5 C 10.500000000000002 105.8 10.500000000000002 106 10.600000000000001 106.1 L 13.700000000000001 112.3 C 13.8 112.4 13.8 112.60000000000001 13.9 112.7 L 15.3 115.10000000000001 C 15.3 115.10000000000001 15.3 115.2 15.3 115.2 C 15.8 116.10000000000001 16.4 117 17 117.9 L 17.2 118.2 C 17.4 118.6 17.599999999999998 118.89999999999999 17.9 119.3 L 18.4 120.1 C 18.4 120.1 18.5 120.3 18.5 120.3 C 18.599999999999998 120.3 18.7 120.5 18.7 120.5 Z" style="fill: rgb(255, 255, 255); stroke-width: 0.1; stroke: rgb(51, 51, 51); stroke-linecap: round; stroke-linejoin: round;"/>
  <path d="M 22.7 125.4 C 29.4 133.7 36.2 141.9 43.2 150 L 34.4 117.80000000000001 L 22.7 125.4 Z" style="fill: rgb(255, 255, 255); stroke-width: 0.1; stroke: rgb(51, 51, 51); stroke-linecap: round; stroke-linejoin: round;"/>
  <path d="M 86.7 188.4 L 89.29999999999998 190.20000000000002 C 89.6 190.5 89.89999999999999 190.70000000000002 90.19999999999999 190.9 L 99.19999999999999 181 L 49.19999999999998 155.9 C 55.999999999999986 162.2 62.79999999999998 168.5 69.79999999999998 174.6 L 69.99999999999999 174.79999999999998 C 75.1 179.29999999999998 80.39999999999999 183.7 85.89999999999999 187.79999999999998 L 86.3 188.1 C 86.4 188.20000000000002 86.60000000000001 188.3 86.7 188.4 Z" style="fill: rgb(255, 255, 255); stroke-width: 0.1; stroke: rgb(51, 51, 51); stroke-linecap: round; stroke-linejoin: round;"/>
  <path d="M 100.1 182.3 L 91.39999999999999 191.8 L 106.6 202.70000000000002 L 100.1 182.3 Z" style="fill: rgb(255, 255, 255); stroke-width: 0.1; stroke: rgb(51, 51, 51); stroke-linecap: round; stroke-linejoin: round;"/>
  <path d="M 151.2 170.5 C 157.4 165 149.7 171.9 151.2 170.5 C 157.4 165 163.1 159.6 166.89999999999998 156.20000000000002 L 116.89999999999998 181.3 L 125.89999999999998 191.20000000000002 C 126.19999999999999 190.90000000000003 126.49999999999999 190.70000000000002 126.79999999999998 190.50000000000003 L 129.39999999999998 188.60000000000002 C 129.49999999999997 188.5 129.7 188.4 129.79999999999998 188.3 L 131.1 187.3 C 136.2 183.4 141.2 179.2 146.1 175 C 146.2 174.9 146.2 174.8 146.29999999999998 174.8 C 148 173.3 149.6 171.9 151.2 170.5 Z" style="fill: rgb(255, 255, 255); stroke-width: 0.1; stroke: rgb(51, 51, 51); stroke-linecap: round; stroke-linejoin: round;"/>
  <path d="M 188 132 C 190.5 129 181.5 140 188 132 C 190.5 129 192.5 126.5 193.4 125.3 L 181.70000000000002 117.7 L 172.9 149.9 C 176.4 146 181.4 140 188 132 Z" style="fill: rgb(255, 255, 255); stroke-width: 0.1; stroke: rgb(51, 51, 51); stroke-linecap: round; stroke-linejoin: round;"/>
  <path d="M 211.3 91.7 L 211.3 91.6 L 182.4 116.8 L 193.5 124 L 194.3 124.5 C 194.4 124.3 194.6 124.2 194.7 124 L 197.4 120.6 C 197.6 120.4 197.7 120.2 197.8 120.1 L 198.1 119.7 C 198.3 119.3 198.6 119 198.8 118.6 L 199 118.3 C 199.6 117.4 200.2 116.4 200.8 115.5 L 202.7 112.1 C 202.9 111.8 203.1 111.4 203.3 111.1 L 204.4 109 L 204.5 108.8 L 205.7 106.4 C 205.9 106 206.1 105.6 206.3 105.2 L 206.4 105 L 208.1 100.9 C 208.1 100.8 208.7 99.2 208.7 99.2 C 208.8 98.9 208.9 98.6 209 98.4 L 209.6 96.7 L 209.7 96.4 L 210 95.7 L 210.3 94.7 C 210.5 94.2 210.6 93.9 210.7 93.6 C 210.7 93.5 210.7 93.5 210.7 93.5 L 211.2 92 C 211.2 91.9 211.3 91.8 211.3 91.7 Z" style="fill: rgb(255, 255, 255); stroke-width: 0.1; stroke: rgb(51, 51, 51); stroke-linecap: round; stroke-linejoin: round;"/>
  <path d="M 212.5 87.3 C 214.6 77 211.5 56.2 210.79999999999998 51.6 L 200.1 55.5 L 187.7 60 L 212.5 87.3 Z" style="fill: rgb(255, 255, 255); stroke-width: 0.1; stroke: rgb(51, 51, 51); stroke-linecap: round; stroke-linejoin: round;"/>
  <path d="M 193.9 23.5 C 190.6 20.7 179.3 12.2 164.60000000000002 12.2 L 164.3 12.2 L 153.3 38.9 L 193.9 23.5 Z" style="fill: rgb(255, 255, 255); stroke-width: 0.1; stroke: rgb(51, 51, 51); stroke-linecap: round; stroke-linejoin: round;"/>
  <path d="M 162.6 12.1 C 153.4 11.9 144.1 13.4 135.3 15.900000000000002 L 151.70000000000002 38.6 L 154.4 32 L 162.6 12.1 Z" style="fill: rgb(255, 255, 255); stroke-width: 0.1; stroke: rgb(51, 51, 51); stroke-linecap: round; stroke-linejoin: round;"/>
  <path d="M 133.9 16.6 C 130.5 19.4 114.4 32.6 109.5 39.9 L 150.4 39.5 L 133.9 16.6 Z" style="fill: rgb(255, 255, 255); stroke-width: 0.1; stroke: rgb(51, 51, 51); stroke-linecap: round; stroke-linejoin: round;"/>
  <path d="M 106.7 39.9 C 101.8 32.6 85.7 19.4 82.30000000000001 16.6 L 65.80000000000001 39.5 L 106.7 39.9 Z" style="fill: rgb(255, 255, 255); stroke-width: 0.1; stroke: rgb(51, 51, 51); stroke-linecap: round; stroke-linejoin: round;"/>
  <path d="M 80.8 15.9 C 72.1 13.4 62.7 11.9 53.5 12.100000000000001 L 61.7 32 L 64.5 38.7 L 80.8 15.9 Z" style="fill: rgb(255, 255, 255); stroke-width: 0.1; stroke: rgb(51, 51, 51); stroke-linecap: round; stroke-linejoin: round;"/>
  <path d="M 51.6 12.2 C 36.9 12.2 25.5 20.7 22.3 23.5 L 62.9 38.9 L 51.9 12.2 L 51.6 12.2 Z" style="fill: rgb(255, 255, 255); stroke-width: 0.1; stroke: rgb(51, 51, 51); stroke-linecap: round; stroke-linejoin: round;"/>
</svg>