<svg version="1.1" xmlns="http://www.w3.org/2000/svg" xmlns:xlink="http://www.w3.org/1999/xlink" x="0px" y="0px"
	 viewBox="0 0 216 216" enable-background="new 0 0 216 216" xml:space="preserve">
<path d="M2.5,89.1l0.1,0.2c0,0,0,0.1,0,0.1c0,0.2,0.1,0.4,0.2,0.6l0.1,0.3c0,0.1,0,0.2,0.1,0.4C2.9,90.8,3,91,3,91l0.1,0.5
	c0.4,1.2,0.8,2.4,1.2,3.6L4.6,96c0,0,0.1,0.2,0.1,0.2l0.2,0.5c0,0,0.1,0.2,0.1,0.2l0.5,1.4c0.2,0.4,0.3,0.8,0.5,1.3l1.8,4.4
	c0,0,0.1,0.2,0.1,0.2l0.6,1.3c0,0,0.1,0.2,0.1,0.2l0.3,0.7l0.1,0.2l3.4,6.8c0.1,0.1,0.1,0.2,0.2,0.3l1.4,2.5c0.6,1,1.2,2,1.9,3
	l0.1,0.2c0.3,0.4,0.5,0.7,0.8,1.1l0.8,1.1c0,0,0.1,0.1,0.1,0.2l2.6,3.2c0.3,0.3,0.6,0.6,0.9,0.9c14.7,18.2,29.6,35.7,48,50.4
	c5.2,4.5,10.5,8.9,16,13l2.6,1.9c0.8,0.5,1.5,1.1,2.3,1.6l0,0l17.8,12.8c0.3,0.2,0.6,0.2,0.9,0l17.8-12.8l0,0c0.5-0.3,1-0.7,1.5-1
	l4.4-3.2c5.1-3.9,10.1-8,15-12.3c0.1-0.1,0.2-0.2,0.2-0.2c8.5-7.4,17.6-14.8,25.1-23.1c7.8-8.8,15.2-17.9,22.6-27.1
	c0.3-0.3,0.6-0.6,0.9-1l2.6-3.2c0,0,0.1-0.1,0.1-0.1c0.1-0.1,0.2-0.2,0.2-0.2c0.1-0.2,0.2-0.3,0.4-0.5l0.3-0.4
	c0.3-0.4,0.5-0.7,0.8-1.1l-0.6-0.4l0.8,0.2c0.6-0.9,1.2-1.9,1.8-2.9l1.9-3.4c0.2-0.3,0.3-0.6,0.5-1l1.1-2.2c0,0,0.1-0.2,0.1-0.2
	l1.7-3.7c0,0,0.1-0.2,0.1-0.2l0.8-1.9c0,0,0.1-0.2,0.1-0.2l1.5-3.8c0.1-0.3,0.2-0.5,0.3-0.8l0.6-1.6c0,0,0.1-0.3,0.1-0.3l0.2-0.6
	l0.1-0.2l0.4-1.1c0.1-0.3,0.2-0.6,0.3-0.9c0,0,0,0,0-0.1l0.8-2.4l-0.7-0.2l0.8,0l0.1-0.4c0-0.1,0-0.1,0.1-0.2l-0.7-0.3l0.8,0.1
	c0,0,0.1-0.2,0.1-0.2l-0.7-0.2l0,0l0.7-0.1l0.2-0.7c0,0,0,0,0-0.1l0.1-0.2c0,0,0,0,0,0c2.8-10,0.8-21.8-0.5-31.8
	c-1-7.7-3.5-13.2-7.7-19.9c-3-4.8-6.1-11.2-10.4-14.9c-8.1-6.8-20.4-13-31.2-11.8c0,0,0,0,0,0c-5.6-0.2-11.2,0.3-16.7,1.2
	c-5.1,0.8-11.2,1.2-15.3,4.6c-8.2,6.7-17.8,13.9-23.7,22.8c-3.8-5.7-9.4-10.5-14.5-15c-3.3-2.9-7.2-7.5-11.2-9.4
	c-8.2-4.2-20.9-4.6-30-4.3c0,0,0,0,0,0c-10.7-1.2-24.5,5-32.1,12.6c-2.9,2.7-5.1,7.2-7.3,10.5c-3.2,4.9-7.9,10.9-9,16.7
	C1.9,62.4-0.9,77.2,2.5,89.1L2.5,89.1z M5.7,50.1c2.1-6.4,11.6-20.1,14.7-24.5l8.2,32.8l-0.2-0.1L5.7,50.1z M187.6,58.3l-0.2,0.1
	l8.2-32.8c3.1,4.4,12.6,18.1,14.7,24.5L187.6,58.3z M170.7,152.4l-23.5,11.8L119,178.3l37.8-42.3l23.1-17.5l-6.8,24.9L170.7,152.4z
	 M174.5,90.6l5.9,25.6l-22.4,17l4.1-10.5L174.5,90.6z M96.5,175.3L64,138.9l43.1,26.5l-6.8,14L96.5,175.3z M35.7,116.2l5.9-25.6
	l12.4,32.1l4.1,10.5l-15.6-11.8L35.7,116.2z M169.7,98.7l-14,36.3l-47.6,29.3L60.5,135l-14-36.3l-4.2-10.8L49.5,53l58.5-2.9
	l58.5,2.9l7.3,34.9L169.7,98.7z M115.9,179.4l-6.8-14l31.5-19.4l11.6-7.1l-5.5,6.2L115.9,179.4z M152.9,50.7l-38.7-1.9l37.5-7.8
	l13.1,10.2L152.9,50.7z M88.3,49.5l-37,1.8l13.1-10.2l37.5,7.8L88.3,49.5z M167.6,51.5l-14.2-11L194.2,25l-8.4,33.6L167.6,51.5z
	 M30.8,60.1l17.1-6.6l-6.7,31.9l-1.5-3.7L30.8,60.1z M4.3,88.8l25.2-27.8l11.1,27l-6.2,27.1L4.3,88.8z M45.5,152.4l-9.3-33.9
	l23.1,17.5l37.8,42.3l-42.7-21.4L45.5,152.4z M108.1,166.9l6.8,14l-6.8,21.3l-6.8-21.3L108.1,166.9z M174.9,85.3l-6.7-31.9l17.1,6.6
	l-8.9,21.6L174.9,85.3z M143.9,41.1l-7.1,1.5l-28.7,5.9l-35-7.2l-0.9-0.2l35.9,0.3c0,0,0,0,0,0L143.9,41.1z M62.7,40.5l-14.2,11
	l-18.2,7.1L21.9,25L62.7,40.5z M116,182.3l4.2,4.6l4.5,4.9l-15.2,10.9L116,182.3z M181.8,115.1L175.5,88l1.8-4.5l9.3-22.5L204,80.2
	l7.9,8.7l-1.4,1.2L181.8,115.1z M18.7,120.5c0,0-0.1-0.2-0.2-0.2c0,0-0.1-0.2-0.1-0.2l-0.5-0.8c-0.3-0.4-0.5-0.7-0.7-1.1l-0.2-0.3
	c-0.6-0.9-1.2-1.8-1.7-2.7c0,0,0-0.1,0-0.1l-1.4-2.4c-0.1-0.1-0.1-0.3-0.2-0.4l-3.1-6.2c-0.1-0.1-0.1-0.3-0.3-0.6L7.4,99
	c-0.1-0.2-0.2-0.5-0.3-0.8l-1.3-3.7c-0.4-1.1-0.7-2.1-1-3.2l28.9,25.2l-11.1,7.2l-0.8,0.5c-0.1-0.2-0.3-0.3-0.4-0.4L18.7,120.5z
	 M22.7,125.4l11.7-7.6l8.8,32.2C36.2,141.9,29.4,133.7,22.7,125.4z M86.7,188.4c-0.1-0.1-0.3-0.2-0.4-0.3l-0.4-0.3
	c-5.5-4.1-10.8-8.5-15.9-13l-0.2-0.2c-7-6.1-13.8-12.4-20.6-18.7l50,25.1l-9,9.9c-0.3-0.2-0.6-0.4-0.9-0.7L86.7,188.4z M100.1,182.3
	l6.5,20.4l-15.2-10.9L100.1,182.3z M151.2,170.5c-1.6,1.4-3.2,2.8-4.9,4.3c-0.1,0-0.1,0.1-0.2,0.2c-4.9,4.2-9.9,8.4-15,12.3l-1.3,1
	c-0.1,0.1-0.3,0.2-0.4,0.3l-2.6,1.9c-0.3,0.2-0.6,0.4-0.9,0.7l-9-9.9l50-25.1C163.1,159.6,157.4,165,151.2,170.5
	C149.7,171.9,157.4,165,151.2,170.5z M188,132c-6.6,8-11.6,14-15.1,17.9l8.8-32.2l11.7,7.6C192.5,126.5,190.5,129,188,132
	C181.5,140,190.5,129,188,132z M211.3,91.7c0,0.1-0.1,0.2-0.1,0.3l-0.5,1.5c0,0,0,0,0,0.1c-0.1,0.3-0.2,0.6-0.4,1.1l-0.3,1l0.7,0.2
	l-0.8-0.1l-0.2,0.6l0.7,0.3l-0.8,0l-0.6,1.7c-0.1,0.2-0.2,0.5-0.3,0.8l-0.5,1.3c-0.1,0.1-0.1,0.3-0.1,0.4l-1.7,4.1l0.7,0.3l-0.8-0.1
	c-0.2,0.4-0.4,0.8-0.6,1.2l-1.2,2.4c0,0-0.1,0.2-0.1,0.2l-1.1,2.1c-0.2,0.3-0.4,0.7-0.6,1l-1.9,3.4c-0.6,0.9-1.2,1.9-1.8,2.8
	l-0.2,0.3c-0.2,0.4-0.5,0.7-0.7,1.1l-0.3,0.4c-0.1,0.1-0.2,0.3-0.4,0.5c0,0-0.1,0.2-0.1,0.2c0,0,0,0,0,0.1l-2.6,3.1
	c-0.1,0.2-0.3,0.3-0.4,0.5l-0.8-0.5l-11.1-7.2l28.9-25.2L211.3,91.7z M212.5,87.3L187.7,60l12.4-4.5l10.7-3.9
	C211.5,56.2,214.6,77,212.5,87.3z M193.9,23.5l-40.6,15.4l11-26.7l0.3,0C179.3,12.2,190.6,20.7,193.9,23.5z M162.6,12.1L154.4,32
	l-2.7,6.6l-16.4-22.7C144.1,13.4,153.4,11.9,162.6,12.1z M133.9,16.6l16.5,22.9l-40.9,0.4C114.4,32.6,130.5,19.4,133.9,16.6z
	 M106.7,39.9l-40.9-0.4l16.5-22.9C85.7,19.4,101.8,32.6,106.7,39.9z M80.8,15.9L64.5,38.7L61.7,32l-8.2-19.9
	C62.7,11.9,72.1,13.4,80.8,15.9z M51.6,12.2l0.3,0l11,26.7L22.3,23.5C25.5,20.7,36.9,12.2,51.6,12.2z M5.4,51.6l10.7,3.9L28.4,60
	L3.6,87.3C1.5,77,4.6,56.2,5.4,51.6z"/>
</svg>
