<?xml version="1.0" encoding="utf-8"?>
<svg x="0px" y="0px" viewBox="0 0 216 216" xmlns="http://www.w3.org/2000/svg">
  <path d="M 108 169.5 C 107.5 169 106.9 168.5 106.3 167.8 L 106 167.5 C 90.4 152.4 80 134.9 78.7 112.7 C 78.8 111.2 78.9 109.7 79.2 108 C 79.6 106.7 78.8 104.3 78.7 102.9 C 79.4 91.1 82.7 79.2 88.7 68.9 C 93.8 60.2 100.9 53.3 108 46.2 C 108.5 46.7 109.1 47.2 109.7 47.9 L 110 48.2 C 125.6 63.3 136 80.9 137.3 103 C 137.2 104.5 137.1 106 136.8 107.8 C 136.8 107.9 136.8 108 136.8 108 C 137.1 109.7 137.2 111.2 137.3 112.8 C 136 133.7 126.7 151.2 112 165.6 C 110.7 166.9 109.3 168.2 108 169.5 Z" style="stroke-width: 0.1; stroke-linejoin: round; stroke: rgb(51, 51, 51); fill: rgb(255, 255, 255);"/>
  <path d="M 159.1 138.7 C 162.2 128.4 163.6 118.8 163.6 110.1 L 157.5 117.5 L 147.4 129.8 Z" style="stroke-width: 0.1; stroke-linejoin: round; stroke: rgb(51, 51, 51); fill: rgb(255, 255, 255);"/>
  <path d="M 98.4 184 L 107.2 172.9 L 107.2 209.6 Z" style="stroke-width: 0.1; stroke-linejoin: round; stroke: rgb(51, 51, 51); fill: rgb(255, 255, 255);"/>
  <path d="M 117.6 184 L 108.8 209.6 L 108.8 172.9 Z" style="stroke-width: 0.1; stroke-linejoin: round; stroke: rgb(51, 51, 51); fill: rgb(255, 255, 255);"/>
  <path d="M 108.8 6.4 L 117.6 32 L 108.8 43.1 Z" style="stroke-width: 0.1; stroke-linejoin: round; stroke: rgb(51, 51, 51); fill: rgb(255, 255, 255);"/>
  <path d="M 98.4 32 L 107.2 6.4 L 107.2 43.1 Z" style="stroke-width: 0.1; stroke-linejoin: round; stroke: rgb(51, 51, 51); fill: rgb(255, 255, 255);"/>
  <path d="M 91.8 61.7 L 93.1 55.7 L 98 33.9 L 107 45.3 C 106.4 45.8 105.8 46.4 105 47.2 C 100.3 51.7 95.7 56.5 91.8 61.7 Z" style="stroke-width: 0.1; stroke-linejoin: round; stroke: rgb(51, 51, 51); fill: rgb(255, 255, 255);"/>
  <path d="M 111.1 47.2 C 110.4 46.5 109.6 45.7 109.1 45.2 L 118.1 33.8 L 124.3 61.7 C 123.8 61.2 123.5 60.8 123.1 60.3 C 119.4 55.6 115.3 51.4 111.1 47.2 Z" style="stroke-width: 0.1; stroke-linejoin: round; stroke: rgb(51, 51, 51); fill: rgb(255, 255, 255);"/>
  <path d="M 124.2 154.2 L 121.3 167.3 L 118 182.1 L 114.9 178.3 L 109 170.7 C 114.3 165.4 119.7 160.2 124.2 154.2 Z" style="stroke-width: 0.1; stroke-linejoin: round; stroke: rgb(51, 51, 51); fill: rgb(255, 255, 255);"/>
  <path d="M 105 168.8 C 105.7 169.5 106.4 170.2 106.9 170.7 L 97.9 182.1 L 91.7 154.2 C 92.1 154.7 92.5 155.2 92.9 155.7 C 96.6 160.4 100.7 164.7 105 168.8 Z" style="stroke-width: 0.1; stroke-linejoin: round; stroke: rgb(51, 51, 51); fill: rgb(255, 255, 255);"/>
  <path d="M 146.6 158.2 L 146.9 131.5 L 158.5 140.3 C 155.7 149.5 151.6 159.2 146.5 168.6 Z" style="stroke-width: 0.1; stroke-linejoin: round; stroke: rgb(51, 51, 51); fill: rgb(255, 255, 255);"/>
  <path d="M 147 84.5 L 146.7 57.6 L 146.6 47.4 C 151.6 56.8 155.7 66.5 158.6 75.7 Z" style="stroke-width: 0.1; stroke-linejoin: round; stroke: rgb(51, 51, 51); fill: rgb(255, 255, 255);"/>
  <path d="M 69 131.5 L 69.3 155.1 L 69.5 168.5 C 64.4 159.2 60.3 149.5 57.4 140.3 Z" style="stroke-width: 0.1; stroke-linejoin: round; stroke: rgb(51, 51, 51); fill: rgb(255, 255, 255);"/>
  <path d="M 69.3 60.7 L 69 84.5 L 57.4 75.7 C 60.3 66.5 64.4 56.8 69.5 47.4 Z" style="stroke-width: 0.1; stroke-linejoin: round; stroke: rgb(51, 51, 51); fill: rgb(255, 255, 255);"/>
  <path d="M 77.4 100.1 L 70.7 86.2 L 71.6 85.3 L 86.1 70.6 C 82.5 77.4 79.9 85 78.5 92.6 C 78 95.1 77.7 97.6 77.4 100.1 Z" style="stroke-width: 0.1; stroke-linejoin: round; stroke: rgb(51, 51, 51); fill: rgb(255, 255, 255);"/>
  <path d="M 138.6 115.9 L 145.3 129.8 L 144.4 130.7 L 129.9 145.4 C 133.5 138.6 136.1 131 137.5 123.4 C 138 120.9 138.3 118.4 138.6 115.9 Z" style="stroke-width: 0.1; stroke-linejoin: round; stroke: rgb(51, 51, 51); fill: rgb(255, 255, 255);"/>
  <path d="M 77.4 115.9 C 78.4 126.1 81.3 136.4 86.1 145.5 L 71.6 130.8 L 70.7 129.8 Z" style="stroke-width: 0.1; stroke-linejoin: round; stroke: rgb(51, 51, 51); fill: rgb(255, 255, 255);"/>
  <path d="M 138.6 100.1 C 137.6 89.9 134.7 79.6 129.9 70.5 L 144.4 85.2 L 145.3 86.2 Z" style="stroke-width: 0.1; stroke-linejoin: round; stroke: rgb(51, 51, 51); fill: rgb(255, 255, 255);"/>
  <path d="M 63.6 123.6 L 68.7 129.8 L 56.9 138.7 C 53.9 128.4 52.4 118.8 52.5 110.1 Z" style="stroke-width: 0.1; stroke-linejoin: round; stroke: rgb(51, 51, 51); fill: rgb(255, 255, 255);"/>
  <path d="M 68.7 86.2 L 63.6 92.4 L 52.5 105.9 C 52.4 97.2 53.9 87.6 56.9 77.3 Z" style="stroke-width: 0.1; stroke-linejoin: round; stroke: rgb(51, 51, 51); fill: rgb(255, 255, 255);"/>
  <path d="M 157.4 98.5 L 147.3 86.2 L 159.1 77.3 C 162.2 87.6 163.6 97.2 163.5 105.9 Z" style="stroke-width: 0.1; stroke-linejoin: round; stroke: rgb(51, 51, 51); fill: rgb(255, 255, 255);"/>
  <path d="M 72.1 173.4 L 78.2 176.1 L 96 184.1 L 92.3 187.2 L 85.4 193.1 C 80.7 187.2 76.2 180.4 72.1 173.4 Z" style="stroke-width: 0.1; stroke-linejoin: round; stroke: rgb(51, 51, 51); fill: rgb(255, 255, 255);"/>
  <path d="M 123.2 186.8 L 120 184.1 L 137.8 176.1 L 143.9 173.4 C 139.8 180.4 135.2 187.2 130.6 193.1 Z" style="stroke-width: 0.1; stroke-linejoin: round; stroke: rgb(51, 51, 51); fill: rgb(255, 255, 255);"/>
  <path d="M 143.9 42.6 L 135.2 38.7 L 120 31.9 L 123.2 29.2 L 130.6 22.9 C 135.3 28.8 139.8 35.6 143.9 42.6 Z" style="stroke-width: 0.1; stroke-linejoin: round; stroke: rgb(51, 51, 51); fill: rgb(255, 255, 255);"/>
  <path d="M 92.8 29.2 L 96 31.9 L 80.8 38.7 L 72.1 42.6 C 76.2 35.6 80.8 28.8 85.4 22.9 Z" style="stroke-width: 0.1; stroke-linejoin: round; stroke: rgb(51, 51, 51); fill: rgb(255, 255, 255);"/>
  <path d="M 104.9 8.3 L 97.2 30.8 L 86.4 21.7 C 92.9 13.6 100.4 6.8 106.6 3.3 Z" style="stroke-width: 0.1; stroke-linejoin: round; stroke: rgb(51, 51, 51); fill: rgb(255, 255, 255);"/>
  <path d="M 118.8 185.2 L 129.6 194.3 C 123.1 202.4 115.6 209.2 109.4 212.7 Z" style="stroke-width: 0.1; stroke-linejoin: round; stroke: rgb(51, 51, 51); fill: rgb(255, 255, 255);"/>
  <path d="M 97.2 185.2 L 106.6 212.7 C 100.4 209.2 92.9 202.4 86.4 194.3 Z" style="stroke-width: 0.1; stroke-linejoin: round; stroke: rgb(51, 51, 51); fill: rgb(255, 255, 255);"/>
  <path d="M 118.8 30.7 L 111.1 8.2 L 109.4 3.2 C 115.6 6.8 123.1 13.6 129.6 21.6 Z" style="stroke-width: 0.1; stroke-linejoin: round; stroke: rgb(51, 51, 51); fill: rgb(255, 255, 255);"/>
  <path d="M 138.3 108 C 138.6 106.3 138.7 104.8 138.8 103.3 L 146.4 87.5 L 163.2 108 L 146.4 128.5 L 138.8 112.7 C 138.7 111.2 138.5 109.6 138.3 108 Z" style="stroke-width: 0.1; stroke-linejoin: round; stroke: rgb(51, 51, 51); fill: rgb(255, 255, 255);"/>
  <path d="M 77.7 108 C 77.5 109.5 77.3 111.1 77.2 112.7 L 69.6 128.5 L 52.8 108 L 69.6 87.5 L 77.2 103.3 C 77.3 104.8 77.4 106.3 77.7 108 Z" style="stroke-width: 0.1; stroke-linejoin: round; stroke: rgb(51, 51, 51); fill: rgb(255, 255, 255);"/>
  <path d="M 145 49.7 L 145.4 84.1 L 126.6 65 L 119.6 33.5 L 142.2 43.6 L 144.9 44.8 Z" style="stroke-width: 0.1; stroke-linejoin: round; stroke: rgb(51, 51, 51); fill: rgb(255, 255, 255);"/>
  <path d="M 71 166.3 L 70.6 131.9 L 89.5 151 L 96.5 182.5 L 73.3 172.1 L 71.1 171.2 Z" style="stroke-width: 0.1; stroke-linejoin: round; stroke: rgb(51, 51, 51); fill: rgb(255, 255, 255);"/>
  <path d="M 142.7 172.2 L 119.5 182.6 L 126.5 151.1 L 145.4 131.9 L 145 166.3 L 144.9 171.2 Z" style="stroke-width: 0.1; stroke-linejoin: round; stroke: rgb(51, 51, 51); fill: rgb(255, 255, 255);"/>
  <path d="M 73.9 43.5 L 96.5 33.4 L 89.5 64.9 L 70.6 84.1 L 71 49.7 L 71.1 44.8 Z" style="stroke-width: 0.1; stroke-linejoin: round; stroke: rgb(51, 51, 51); fill: rgb(255, 255, 255);"/>
</svg>