<svg version="1.1" xmlns="http://www.w3.org/2000/svg" xmlns:xlink="http://www.w3.org/1999/xlink" x="0px" y="0px"
	 viewBox="0 0 216 216" enable-background="new 0 0 216 216" xml:space="preserve">
<path d="M157.5,32.2C141,6.8,110.8-9.1,82.4,8.1l-1.2,0.8c0,0,0,0,0,0L80,9.6C38,38.1,31.5,104,43.6,149l0,0
	c5.3,19.9,15,39.9,31.1,53.3c17,14.3,39.8,17.3,59,5.6l1.2-0.8c0,0,0,0,0,0l1.2-0.8c30.7-20.8,41.7-63.2,41.7-98.2
	c0.1-0.1,0.1-0.2,0-0.4C177.7,81.6,171.8,54.4,157.5,32.2C150.9,22.1,164,42.3,157.5,32.2z M129.3,182.5l8-29.8l18.6-11.9v41.7
	H129.3z M127,183.6l-19,29.4l-19-29.4l1.3-0.8l17.7-11.3l0.6,0.4L127,183.6z M89.1,32.4L108,3l19,29.4l-1.3,0.8L108,44.6l-5.1-3.3
	L89.1,32.4z M148.5,143.5l-10.5,6.8l10.4-38.9l7.4,27.5L148.5,143.5z M155.7,77.2l-7.4,27.5L138,65.8L155.7,77.2z M147.5,108
	l-11.7,43.6l-27.8,17.8l-27.8-17.8L68.6,108l11.7-43.6L108,46.6l27.8,17.8L147.5,108z M109.6,45.6L127.7,34l7.5,27.9L109.6,45.6z
	 M80.9,62L88.4,34l18.1,11.6L80.9,62z M78.1,65.8l-10.4,38.9l-7.4-27.5l7.2-4.6L78.1,65.8z M106.5,170.4L88.4,182L80.9,154
	L106.5,170.4z M59,78.9l7.8,29.1L59,137.1l-10.3-15.9L40.2,108l8.5-13.2L59,78.9z M60.4,138.8l7.4-27.5l10.4,38.9l-2.3-1.5
	L60.4,138.8z M109.6,170.4l25.5-16.4l-7.5,27.9l-14.5-9.3L109.6,170.4z M157.6,75.2V35.6c5.6,9.2,10,19.6,13.1,31.2L157.6,75.2z
	 M155.9,75.2l-18.6-11.9l-8-29.8h26.6V75.2z M78.8,63.3L60.2,75.2V33.5h26.6L78.8,63.3z M58.2,138.9L45,147.4
	c-3-11.6-4.7-23.9-4.9-36.5L58.2,138.9z M58.5,140.8v39.6c-5.6-9.2-10-19.6-13.1-31.2L58.5,140.8z M60.2,140.7L77,151.5l1.8,1.1
	l8,29.8H60.2V140.7z M157.1,137.1l-7.8-29.1l7.8-29.1l9.3,14.4l9.5,14.7l-9.5,14.7L157.1,137.1z M164.5,87.2L157.9,77l13.2-8.5
	c3,11.6,4.7,23.9,4.9,36.5L164.5,87.2z M155.2,31.8h-25.8l5.6-20.9C142.4,15.9,149.2,23,155.2,31.8z M133.4,9.9l-5.5,20.6l-5.1-7.8
	L109.6,2.3C117.8,2.6,125.8,5.2,133.4,9.9z M106.5,2.4l-1.3,2L88.2,30.6L82.7,10l0.7-0.4C90.7,5.1,98.5,2.6,106.5,2.4z M81,11.1
	l0.2-0.1l5.6,20.9H60.9C66.8,23.1,73.5,16.1,81,11.1z M58.5,75.2l-13.1-8.4c3.2-11.6,7.6-22.1,13.1-31.2V75.2z M45,68.6l13.2,8.5
	l-18.1,28C40.3,92.5,41.9,80.2,45,68.6z M60.9,184.2h25.8l-5.6,20.9C73.7,200,66.9,193,60.9,184.2z M82.7,206l5.5-20.6l4.7,7.2
	l13.6,21C98.3,213.3,90.3,210.8,82.7,206z M109.6,213.6l13.6-21l4.6-7.2l5.5,20.6l-0.7,0.4C125.4,210.9,117.6,213.3,109.6,213.6z
	 M135.1,204.9l-0.2,0.1l-5.6-20.9h25.8C149.3,192.9,142.6,199.9,135.1,204.9z M157.6,140.8l13.1,8.4c-3.2,11.6-7.5,22-13.1,31.2
	V140.8z M171.1,147.4l-12.2-7.8l-1.1-0.7l6.5-10.1l11.6-17.9C175.8,123.5,174.2,135.8,171.1,147.4z"/>
</svg>
