<?xml version="1.0" encoding="utf-8"?>
<svg x="0px" y="0px" viewBox="0 0 216 216" xmlns="http://www.w3.org/2000/svg">
  <path d="M 171.1 147.4 C 174.2 135.8 175.8 123.5 175.9 110.9 L 164.3 128.8 L 157.8 138.9 L 158.9 139.6 L 171.1 147.4 Z" style="fill: rgb(255, 255, 255); stroke-width: 0.1; stroke-linejoin: round; stroke: rgb(51, 51, 51);"/>
  <path d="M 129.3 182.5 L 155.9 182.5 L 155.9 140.79999999999998 L 137.3 152.7 L 129.3 182.5 Z" style="fill: rgb(255, 255, 255); stroke-width: 0.1; stroke-linejoin: round; stroke: rgb(51, 51, 51);"/>
  <path d="M 127 183.6 L 108.6 171.89999999999998 L 108 171.49999999999997 L 90.3 182.79999999999998 L 89 183.6 L 108 213 L 127 183.6 Z" style="fill: rgb(255, 255, 255); stroke-width: 0.1; stroke-linejoin: round; stroke: rgb(51, 51, 51);"/>
  <path d="M 89.1 32.4 L 102.9 41.300000000000004 L 108 44.6 L 125.7 33.199999999999996 L 127 32.4 L 108 3 L 89.1 32.4 Z" style="fill: rgb(255, 255, 255); stroke-width: 0.1; stroke-linejoin: round; stroke: rgb(51, 51, 51);"/>
  <path d="M 148.5 143.5 L 155.8 138.9 L 148.4 111.4 L 138 150.3 L 148.5 143.5 Z" style="fill: rgb(255, 255, 255); stroke-width: 0.1; stroke-linejoin: round; stroke: rgb(51, 51, 51);"/>
  <path d="M 155.7 77.2 L 138 65.8 L 148.29999999999998 104.7 L 155.7 77.2 Z" style="fill: rgb(255, 255, 255); stroke-width: 0.1; stroke-linejoin: round; stroke: rgb(51, 51, 51);"/>
  <path d="M 147.5 108 L 135.8 64.4 L 108 46.6 L 80.3 64.4 L 68.6 108 L 80.20000000000002 151.6 L 108.00000000000001 169.4 L 135.8 151.6 L 147.5 108 Z" style="fill: rgb(255, 255, 255); stroke-width: 0.1; stroke-linejoin: round; stroke: rgb(51, 51, 51);"/>
  <path d="M 109.6 45.6 L 135.2 61.9 L 127.7 34 L 109.6 45.6 Z" style="fill: rgb(255, 255, 255); stroke-width: 0.1; stroke-linejoin: round; stroke: rgb(51, 51, 51);"/>
  <path d="M 80.9 62 L 106.5 45.6 L 88.4 34 L 80.9 62 Z" style="fill: rgb(255, 255, 255); stroke-width: 0.1; stroke-linejoin: round; stroke: rgb(51, 51, 51);"/>
  <path d="M 78.1 65.8 L 67.49999999999999 72.6 L 60.29999999999999 77.19999999999999 L 67.69999999999999 104.69999999999999 L 78.1 65.8 Z" style="fill: rgb(255, 255, 255); stroke-width: 0.1; stroke-linejoin: round; stroke: rgb(51, 51, 51);"/>
  <path d="M 106.5 170.4 L 80.9 154 L 88.4 182 L 106.5 170.4 Z" style="fill: rgb(255, 255, 255); stroke-width: 0.1; stroke-linejoin: round; stroke: rgb(51, 51, 51);"/>
  <path d="M 59 78.9 L 48.7 94.8 L 40.2 108 L 48.7 121.19999999999999 L 59 137.1 L 66.8 108 L 59 78.9 Z" style="fill: rgb(255, 255, 255); stroke-width: 0.1; stroke-linejoin: round; stroke: rgb(51, 51, 51);"/>
  <path d="M 60.4 138.8 L 75.9 148.70000000000002 L 78.2 150.20000000000002 L 67.8 111.30000000000001 L 60.4 138.8 Z" style="fill: rgb(255, 255, 255); stroke-width: 0.1; stroke-linejoin: round; stroke: rgb(51, 51, 51);"/>
  <path d="M 109.6 170.4 L 113.1 172.6 L 127.6 181.9 L 135.1 154 L 109.6 170.4 Z" style="fill: rgb(255, 255, 255); stroke-width: 0.1; stroke-linejoin: round; stroke: rgb(51, 51, 51);"/>
  <path d="M 157.6 75.2 L 170.7 66.8 C 167.6 55.2 163.2 44.8 157.6 35.6 L 157.6 75.2 Z" style="fill: rgb(255, 255, 255); stroke-width: 0.1; stroke-linejoin: round; stroke: rgb(51, 51, 51);"/>
  <path d="M 155.9 75.2 L 155.9 33.5 L 129.3 33.5 L 137.3 63.300000000000004 L 155.9 75.2 Z" style="fill: rgb(255, 255, 255); stroke-width: 0.1; stroke-linejoin: round; stroke: rgb(51, 51, 51);"/>
  <path d="M 78.8 63.3 L 86.80000000000001 33.5 L 60.2 33.5 L 60.2 75.2 L 78.8 63.3 Z" style="fill: rgb(255, 255, 255); stroke-width: 0.1; stroke-linejoin: round; stroke: rgb(51, 51, 51);"/>
  <path d="M 58.2 138.9 L 40.1 110.9 C 40.3 123.5 42 135.8 45 147.4 L 58.2 138.9 Z" style="fill: rgb(255, 255, 255); stroke-width: 0.1; stroke-linejoin: round; stroke: rgb(51, 51, 51);"/>
  <path d="M 58.5 140.8 L 45.4 149.20000000000002 C 48.5 160.8 52.9 171.20000000000002 58.5 180.4 L 58.5 140.8 Z" style="fill: rgb(255, 255, 255); stroke-width: 0.1; stroke-linejoin: round; stroke: rgb(51, 51, 51);"/>
  <path d="M 60.2 140.7 L 60.2 182.4 L 86.8 182.4 L 78.8 152.6 L 77 151.5 L 60.2 140.7 Z" style="fill: rgb(255, 255, 255); stroke-width: 0.1; stroke-linejoin: round; stroke: rgb(51, 51, 51);"/>
  <path d="M 157.1 137.1 L 166.4 122.70000000000002 L 175.9 108.00000000000001 L 166.4 93.30000000000001 L 157.1 78.9 L 149.29999999999998 108 L 157.1 137.1 Z" style="fill: rgb(255, 255, 255); stroke-width: 0.1; stroke-linejoin: round; stroke: rgb(51, 51, 51);"/>
  <path d="M 164.5 87.2 L 176 105 C 175.79999999999998 92.4 174.1 80.1 171.1 68.5 L 157.9 77 L 164.5 87.2 Z" style="fill: rgb(255, 255, 255); stroke-width: 0.1; stroke-linejoin: round; stroke: rgb(51, 51, 51);"/>
  <path d="M 155.2 31.8 C 149.2 23 142.4 15.9 134.99999999999997 10.900000000000002 L 129.39999999999998 31.8 L 155.2 31.8 Z" style="fill: rgb(255, 255, 255); stroke-width: 0.1; stroke-linejoin: round; stroke: rgb(51, 51, 51);"/>
  <path d="M 133.4 9.9 C 125.8 5.2 117.8 2.6 109.6 2.3 L 122.80000000000001 22.7 L 127.9 30.5 L 133.4 9.9 Z" style="fill: rgb(255, 255, 255); stroke-width: 0.1; stroke-linejoin: round; stroke: rgb(51, 51, 51);"/>
  <path d="M 106.5 2.4 C 98.5 2.6 90.7 5.1 83.4 9.6 L 82.7 10 L 88.2 30.6 L 105.2 4.4 L 106.5 2.4 Z" style="fill: rgb(255, 255, 255); stroke-width: 0.1; stroke-linejoin: round; stroke: rgb(51, 51, 51);"/>
  <path d="M 81 11.1 C 73.5 16.1 66.8 23.1 60.9 31.9 L 86.8 31.9 L 81.2 11 L 81 11.1 Z" style="fill: rgb(255, 255, 255); stroke-width: 0.1; stroke-linejoin: round; stroke: rgb(51, 51, 51);"/>
  <path d="M 58.5 75.2 L 58.5 35.599999999999994 C 53 44.699999999999996 48.6 55.199999999999996 45.4 66.8 L 58.5 75.2 Z" style="fill: rgb(255, 255, 255); stroke-width: 0.1; stroke-linejoin: round; stroke: rgb(51, 51, 51);"/>
  <path d="M 45 68.6 C 41.9 80.2 40.3 92.5 40.1 105.1 L 58.2 77.1 L 45 68.6 Z" style="fill: rgb(255, 255, 255); stroke-width: 0.1; stroke-linejoin: round; stroke: rgb(51, 51, 51);"/>
  <path d="M 60.9 184.2 C 66.9 193 73.7 200 81.10000000000001 205.1 L 86.7 184.2 L 60.9 184.2 Z" style="fill: rgb(255, 255, 255); stroke-width: 0.1; stroke-linejoin: round; stroke: rgb(51, 51, 51);"/>
  <path d="M 82.7 206 C 90.3 210.8 98.3 213.3 106.5 213.6 L 92.9 192.6 L 88.2 185.4 L 82.7 206 Z" style="fill: rgb(255, 255, 255); stroke-width: 0.1; stroke-linejoin: round; stroke: rgb(51, 51, 51);"/>
  <path d="M 109.6 213.6 C 117.6 213.3 125.4 210.9 132.6 206.4 L 133.29999999999998 206 L 127.79999999999998 185.4 L 123.19999999999999 192.6 L 109.6 213.6 Z" style="fill: rgb(255, 255, 255); stroke-width: 0.1; stroke-linejoin: round; stroke: rgb(51, 51, 51);"/>
  <path d="M 135.1 204.9 C 142.6 199.9 149.3 192.9 155.10000000000002 184.1 L 129.3 184.1 L 134.9 205 L 135.1 204.9 Z" style="fill: rgb(255, 255, 255); stroke-width: 0.1; stroke-linejoin: round; stroke: rgb(51, 51, 51);"/>
  <path d="M 157.6 140.8 L 157.6 180.4 C 163.2 171.20000000000002 167.5 160.8 170.7 149.20000000000002 L 157.6 140.8 Z" style="fill: rgb(255, 255, 255); stroke-width: 0.1; stroke-linejoin: round; stroke: rgb(51, 51, 51);"/>
</svg>