<svg version="1.1" xmlns="http://www.w3.org/2000/svg" xmlns:xlink="http://www.w3.org/1999/xlink" x="0px" y="0px"
	 viewBox="0 0 216 216" enable-background="new 0 0 216 216" xml:space="preserve">
<path d="M180.7,66.4L180.7,66.4c-0.9-18.8-7.7-37.2-22.8-49.2c-7.2-6.4-17.5-10.1-26.7-12.6c0,0-0.1-0.1-0.2,0
	c-7-1.8-14.6-3.1-22.9-3.7c0,0-0.1,0-0.1,0l0,0C99.7,1.5,92,2.8,85,4.6c-8.7,0.9-20.4,6.9-26.9,12.6C43,29.2,36.2,47.6,35.3,66.4
	c0,0,0,0,0,0c-1.3,29.3,8.7,58.7,21.5,84.7c11.9,24.2,27.8,48.6,50.7,63.9l0,0l0,0c0,0,0,0,0,0c0,0,0,0,0,0c0.2,0.1,0.9,0.1,1,0
	c33.9-23.5,55.2-64.9,66.2-103.7l0,0C178.8,96.7,181.3,81.6,180.7,66.4L180.7,66.4z M173.4,109.6l-12.6-10.3l-2.8-2.3l14.8-19.6
	l6.3-8.4C179.4,81.2,177.4,94.9,173.4,109.6z M136.9,185.2l-11.6-10.7l-2.5-2.3l17.4-8.5l14.1-6.8C149,167,143,176.7,136.9,185.2z
	 M79.1,185.2C73,176.7,67,167,61.7,156.9l15.3,7.4l16.2,7.9l-5.5,5.1L79.1,185.2z M59.5,18.8l18.5,2.7l9.7,1.4l-8.2,20.8l-20.9,6.1
	L59.2,31L59.5,18.8z M156.8,31.5l0.5,18.3l-20.9-6.1l-8.2-20.8l28.3-4.1L156.8,31.5z M150.3,103.1l-15.1,16.7
	c6.8-13.3,10.6-28.2,11.9-43l8.9,20.1L150.3,103.1z M117.2,142.5c-3,3.4-6.1,6.6-9.2,10c-7.9-8.6-15.9-17-22.1-27.1l0,0
	c-8.9-14.5-14.4-32.9-15.5-52c1-20.8,13.9-38.4,35.6-41.2c10.1-1.3,22.4,5.8,29.1,12.7c7.4,7.6,10,18.1,10.4,28.4
	C144.1,99.4,134.4,122.9,117.2,142.5C114.7,145.3,121.3,137.8,117.2,142.5z M128.1,37.3c-5.1-3.1-11-5.6-17-6.6l8.7-4.1l6.8-3.2
	l7,17.9C131.9,39.8,130,38.5,128.1,37.3z M100.7,31.7c-6.6,1.9-13.1,5.1-18.3,9.6l7-17.9l15.5,7.3C103.5,30.9,102.1,31.3,100.7,31.7
	z M74.8,50.1c-3.6,6.1-5.3,13.2-5.9,20.2l-9.9-18.9l6.5-1.9L77.7,46C76.7,47.2,75.6,48.8,74.8,50.1z M146.1,63.7
	c-1.2-6.3-3.7-12.7-7.8-17.7l18.6,5.5l-9.9,18.9C146.9,68.1,146.5,65.8,146.1,63.7z M69,76.8c1.2,14.8,5.1,29.7,11.9,43L60.1,96.9
	L69,76.8z M147.4,73.4l11.1-21.2l20.2,14.6l-21.6,28.7L147.4,73.4z M125.6,21.9L108,30.3l-17.6-8.3l2.4-2.5L108,3L125.6,21.9z
	 M68.6,73.4l-9.7,22L37.4,66.7l20.2-14.6L68.6,73.4z M84.4,126.2C84.4,126.2,84.4,126.2,84.4,126.2l7.3,35.5l1.8,8.8l-32.9-16
	l-0.2-16.1L60,99.2L84.4,126.2z M95.1,170l-8.2-40c5.9,8.7,13,16.1,20,23.8l-4.2,5.7L95.1,170z M109.1,153.7
	c7-7.7,14.2-15.1,20-23.8l-8.2,40l-5.9-8.2L109.1,153.7z M155.4,154.6l-32.9,16l9-44.3l24.4-27l-0.4,39.2L155.4,154.6z M110.1,2.8
	c7.1,0.6,13.7,1.7,19.8,3.3l-3.3,14.4L110.1,2.8z M89.4,20.5L86.1,6.1c6.1-1.6,12.7-2.7,19.8-3.3L89.4,20.5z M95.6,172.2l7.3-10
	l5.1-7l12.4,17.1L108,211.5l-7.2-22.9L95.6,172.2z M168.7,57.5l-9.1-6.6l11.6-8.9l2.2-1.7c3.1,7.2,4.9,15.5,5.5,24.5L168.7,57.5z
	 M172.7,38.7l-13.7,10.5l-0.8-29.6C164.3,24.9,169.2,31.3,172.7,38.7z M128.1,21.2l3.4-14.7c9.3,2.6,17.3,6.2,23.7,10.8L128.1,21.2z
	 M84.5,6.5l3.4,14.7l-27.1-3.9C67.2,12.7,75.2,9.1,84.5,6.5z M57.8,19.7l-0.8,29.6L43.3,38.7C46.8,31.3,51.7,24.9,57.8,19.7z
	 M42.6,40.3l2.2,1.7l11.6,8.9l-9.1,6.6l-10.2,7.4C37.7,55.8,39.5,47.5,42.6,40.3z M36.9,68.9l21.1,28l-2.3,1.9l-13.1,10.8
	C38.6,94.9,36.7,81.2,36.9,68.9z M43.1,111.3l4.3-3.6l10.9-8.9l0.3,31.1l0.2,21.6C52.2,138.2,46.8,124.4,43.1,111.3z M80.1,186.5
	l14.1-13l12.2,38.7C100.2,207.7,90.6,199,80.1,186.5z M109.5,212.2l5.2-16.5l7-22.2l14.1,13C126.5,197.6,117.9,206.1,109.5,212.2z
	 M157.3,130.7l0.3-31.9l10.6,8.7l4.6,3.8c-3.7,13-9.1,26.9-15.8,40.2L157.3,130.7z"/>
</svg>
