<?xml version="1.0" encoding="utf-8"?>
<svg x="0px" y="0px" viewBox="0 0 216 216" xmlns="http://www.w3.org/2000/svg">
  <path d="M 157.3 130.7 L 157 151.5 C 163.70000000000002 138.2 169.10000000000002 124.29999999999998 172.8 111.29999999999998 L 168.20000000000002 107.49999999999999 L 157.60000000000002 98.79999999999998 L 157.3 130.7 Z" style="fill: rgb(255, 255, 255); stroke-width: 0.1; stroke: rgb(51, 51, 51); stroke-linejoin: round;"/>
  <path d="M 173.4 109.6 C 177.4 94.9 179.4 81.2 179.10000000000002 69 L 172.8 77.4 L 158 97 L 160.8 99.3 L 173.4 109.6 Z" style="fill: rgb(255, 255, 255); stroke-width: 0.1; stroke: rgb(51, 51, 51); stroke-linejoin: round;"/>
  <path d="M 136.9 185.2 C 143 176.7 149 167 154.3 156.89999999999998 L 140.20000000000002 163.7 L 122.80000000000001 172.2 L 125.30000000000001 174.5 L 136.9 185.2 Z" style="fill: rgb(255, 255, 255); stroke-width: 0.1; stroke: rgb(51, 51, 51); stroke-linejoin: round;"/>
  <path d="M 79.1 185.2 L 87.7 177.3 L 93.2 172.20000000000002 L 77 164.3 L 61.7 156.9 C 67 167 73 176.7 79.1 185.2 Z" style="fill: rgb(255, 255, 255); stroke-width: 0.1; stroke: rgb(51, 51, 51); stroke-linejoin: round;"/>
  <path d="M 59.5 18.8 L 59.2 31 L 58.6 49.800000000000004 L 79.5 43.7 L 87.7 22.9 L 78 21.5 L 59.5 18.8 Z" style="fill: rgb(255, 255, 255); stroke-width: 0.1; stroke: rgb(51, 51, 51); stroke-linejoin: round;"/>
  <path d="M 156.8 31.5 L 156.50000000000003 18.799999999999997 L 128.20000000000002 22.899999999999995 L 136.4 43.699999999999996 L 157.3 49.8 L 156.8 31.5 Z" style="fill: rgb(255, 255, 255); stroke-width: 0.1; stroke: rgb(51, 51, 51); stroke-linejoin: round;"/>
  <path d="M 150.3 103.1 L 156.00000000000003 96.9 L 147.10000000000002 76.8 C 145.8 91.6 142.00000000000003 106.5 135.20000000000002 119.8 L 150.3 103.1 Z" style="fill: rgb(255, 255, 255); stroke-width: 0.1; stroke: rgb(51, 51, 51); stroke-linejoin: round;"/>
  <path d="M 117.2 142.5 C 121.3 137.8 114.7 145.3 117.2 142.5 C 134.4 122.9 144.1 99.4 145.5 73.30000000000001 C 145.1 63.00000000000001 142.5 52.50000000000001 135.1 44.900000000000006 C 128.4 38 116.1 30.900000000000002 106 32.2 C 84.30000000000001 35.00000000000001 71.4 52.60000000000001 70.4 73.4 C 71.5 92.5 77 110.9 85.9 125.4 L 85.9 125.4 C 92.1 135.5 100.1 143.9 108 152.5 C 111.10000000000001 149.1 114.2 145.9 117.2 142.5 Z" style="fill: rgb(255, 255, 255); stroke-width: 0.1; stroke: rgb(51, 51, 51); stroke-linejoin: round;"/>
  <path d="M 128.1 37.3 C 130 38.5 131.9 39.8 133.6 41.3 L 126.6 23.399999999999995 L 119.8 26.599999999999994 L 111.1 30.699999999999996 C 117.1 31.699999999999996 123 34.199999999999996 128.1 37.3 Z" style="fill: rgb(255, 255, 255); stroke-width: 0.1; stroke: rgb(51, 51, 51); stroke-linejoin: round;"/>
  <path d="M 100.7 31.7 C 102.1 31.3 103.5 30.9 104.9 30.7 L 89.4 23.4 L 82.4 41.3 C 87.60000000000001 36.8 94.10000000000001 33.6 100.7 31.7 Z" style="fill: rgb(255, 255, 255); stroke-width: 0.1; stroke: rgb(51, 51, 51); stroke-linejoin: round;"/>
  <path d="M 74.8 50.1 C 75.6 48.8 76.7 47.2 77.7 46 L 65.5 49.5 L 58.99999999999999 51.4 L 68.89999999999999 70.3 C 69.5 63.3 71.2 56.2 74.8 50.1 Z" style="fill: rgb(255, 255, 255); stroke-width: 0.1; stroke: rgb(51, 51, 51); stroke-linejoin: round;"/>
  <path d="M 146.1 63.7 C 146.5 65.8 146.9 68.1 146.99999999999997 70.4 L 156.89999999999998 51.5 L 138.29999999999998 46 C 142.4 51 144.9 57.400000000000006 146.1 63.7 Z" style="fill: rgb(255, 255, 255); stroke-width: 0.1; stroke: rgb(51, 51, 51); stroke-linejoin: round;"/>
  <path d="M 69 76.8 L 60.1 96.9 L 80.9 119.8 C 74.1 106.5 70.2 91.6 69 76.8 Z" style="fill: rgb(255, 255, 255); stroke-width: 0.1; stroke: rgb(51, 51, 51); stroke-linejoin: round;"/>
  <path d="M 147.4 73.4 L 157.1 95.5 L 178.7 66.8 L 158.5 52.2 L 147.4 73.4 Z" style="fill: rgb(255, 255, 255); stroke-width: 0.1; stroke: rgb(51, 51, 51); stroke-linejoin: round;"/>
  <path d="M 125.6 21.9 L 108 3 L 92.80000000000001 19.5 L 90.4 22 L 108 30.3 L 125.6 21.9 Z" style="fill: rgb(255, 255, 255); stroke-width: 0.1; stroke: rgb(51, 51, 51); stroke-linejoin: round;"/>
  <path d="M 68.6 73.4 L 57.599999999999994 52.1 L 37.4 66.7 L 58.89999999999999 95.4 L 68.6 73.4 Z" style="fill: rgb(255, 255, 255); stroke-width: 0.1; stroke: rgb(51, 51, 51); stroke-linejoin: round;"/>
  <path d="M 84.4 126.2 L 60 99.2 L 60.4 138.4 L 60.6 154.5 L 93.5 170.5 L 91.7 161.7 L 84.4 126.2 C 84.4 126.2 84.4 126.2 84.4 126.2 Z" style="fill: rgb(255, 255, 255); stroke-width: 0.1; stroke: rgb(51, 51, 51); stroke-linejoin: round;"/>
  <path d="M 95.1 170 L 102.69999999999999 159.5 L 106.89999999999999 153.8 C 99.89999999999999 146.1 92.8 138.7 86.89999999999999 130 L 95.1 170 Z" style="fill: rgb(255, 255, 255); stroke-width: 0.1; stroke: rgb(51, 51, 51); stroke-linejoin: round;"/>
  <path d="M 109.1 153.7 L 114.99999999999999 161.7 L 120.89999999999999 169.89999999999998 L 129.1 129.89999999999998 C 123.3 138.6 116.1 146 109.1 153.7 Z" style="fill: rgb(255, 255, 255); stroke-width: 0.1; stroke: rgb(51, 51, 51); stroke-linejoin: round;"/>
  <path d="M 155.4 154.6 L 155.5 138.5 L 155.9 99.3 L 131.5 126.3 L 122.5 170.6 L 155.4 154.6 Z" style="fill: rgb(255, 255, 255); stroke-width: 0.1; stroke: rgb(51, 51, 51); stroke-linejoin: round;"/>
  <path d="M 110.1 2.8 L 126.60000000000001 20.5 L 129.9 6.1 C 123.8 4.5 117.19999999999999 3.4 110.1 2.8 Z" style="fill: rgb(255, 255, 255); stroke-width: 0.1; stroke: rgb(51, 51, 51); stroke-linejoin: round;"/>
  <path d="M 89.4 20.5 L 105.89999999999999 2.8 C 98.8 3.3999999999999995 92.19999999999999 4.5 86.1 6.1 L 89.4 20.5 Z" style="fill: rgb(255, 255, 255); stroke-width: 0.1; stroke: rgb(51, 51, 51); stroke-linejoin: round;"/>
  <path d="M 95.6 172.2 L 100.8 188.6 L 108 211.5 L 120.39999999999999 172.29999999999998 L 107.99999999999999 155.2 L 102.89999999999999 162.2 L 95.6 172.2 Z" style="fill: rgb(255, 255, 255); stroke-width: 0.1; stroke: rgb(51, 51, 51); stroke-linejoin: round;"/>
  <path d="M 168.7 57.5 L 178.89999999999998 64.8 C 178.29999999999998 55.8 176.49999999999997 47.5 173.39999999999998 40.3 L 171.2 42 L 159.6 50.9 L 168.7 57.5 Z" style="fill: rgb(255, 255, 255); stroke-width: 0.1; stroke: rgb(51, 51, 51); stroke-linejoin: round;"/>
  <path d="M 172.7 38.7 C 169.2 31.3 164.3 24.9 158.2 19.6 L 159 49.2 L 172.7 38.7 Z" style="fill: rgb(255, 255, 255); stroke-width: 0.1; stroke: rgb(51, 51, 51); stroke-linejoin: round;"/>
  <path d="M 128.1 21.2 L 155.2 17.3 C 148.8 12.7 140.8 9.1 131.5 6.5 L 128.1 21.2 Z" style="fill: rgb(255, 255, 255); stroke-width: 0.1; stroke: rgb(51, 51, 51); stroke-linejoin: round;"/>
  <path d="M 84.5 6.5 C 75.2 9.1 67.2 12.7 60.800000000000004 17.3 L 87.9 21.2 L 84.5 6.5 Z" style="fill: rgb(255, 255, 255); stroke-width: 0.1; stroke: rgb(51, 51, 51); stroke-linejoin: round;"/>
  <path d="M 57.8 19.7 C 51.7 24.9 46.8 31.3 43.3 38.7 L 57 49.3 L 57.8 19.7 Z" style="fill: rgb(255, 255, 255); stroke-width: 0.1; stroke: rgb(51, 51, 51); stroke-linejoin: round;"/>
  <path d="M 42.6 40.3 C 39.5 47.5 37.7 55.8 37.10000000000001 64.9 L 47.300000000000004 57.5 L 56.400000000000006 50.9 L 44.800000000000004 42 L 42.6 40.3 Z" style="fill: rgb(255, 255, 255); stroke-width: 0.1; stroke: rgb(51, 51, 51); stroke-linejoin: round;"/>
  <path d="M 36.9 68.9 C 36.7 81.2 38.6 94.9 42.6 109.60000000000001 L 55.7 98.80000000000001 L 58 96.9 L 36.9 68.9 Z" style="fill: rgb(255, 255, 255); stroke-width: 0.1; stroke: rgb(51, 51, 51); stroke-linejoin: round;"/>
  <path d="M 43.1 111.3 C 46.8 124.4 52.2 138.2 58.8 151.5 L 58.599999999999994 129.9 L 58.3 98.8 L 47.4 107.7 L 43.1 111.3 Z" style="fill: rgb(255, 255, 255); stroke-width: 0.1; stroke: rgb(51, 51, 51); stroke-linejoin: round;"/>
  <path d="M 80.1 186.5 C 90.6 199 100.2 207.7 106.39999999999999 212.2 L 94.19999999999999 173.5 L 80.1 186.5 Z" style="fill: rgb(255, 255, 255); stroke-width: 0.1; stroke: rgb(51, 51, 51); stroke-linejoin: round;"/>
  <path d="M 109.5 212.2 C 117.9 206.1 126.5 197.6 135.8 186.5 L 121.7 173.5 L 114.7 195.7 L 109.5 212.2 Z" style="fill: rgb(255, 255, 255); stroke-width: 0.1; stroke: rgb(51, 51, 51); stroke-linejoin: round;"/>
</svg>