<svg version="1.1" xmlns="http://www.w3.org/2000/svg" xmlns:xlink="http://www.w3.org/1999/xlink" x="0px" y="0px"
	 viewBox="0 0 216 216" enable-background="new 0 0 216 216" xml:space="preserve">
<path d="M0.9,214.2c0,0.4,0.3,0.8,0.7,0.8c0.1,0,0.1,0,0.2,0h212.4c0.1,0,0.1,0,0.2,0c0.4-0.1,0.7-0.5,0.7-0.8V1.8
	c0-0.4-0.3-0.8-0.7-0.8c-0.1,0-0.1,0-0.2,0H1.8c-0.4,0-0.9,0.4-0.9,0.9V214.2z M174.8,190.8l-1.3-0.2l-60.9-7.5l62.2-7.6V190.8z
	 M191.9,173.7h-15.3l7.6-63.6l3.4,28.7L191.9,173.7z M108,34l66.9,8.2l7.9,65.8l-7.9,65.8L108,182l-66.9-8.2L33.2,108l7.9-65.8
	l3.8-0.5L108,34z M58.9,177.7l44.5,5.5l-62.2,7.6v-15.3L58.9,177.7z M184.3,105.9l-7.6-63.6h15.3L184.3,105.9z M174.8,25.2v15.3
	l-1.4-0.2l-60.8-7.5l44.4-5.5L174.8,25.2z M103.4,32.8l-62.2,7.6V25.2l17.7,2.2L103.4,32.8z M31.7,105.9l-3.4-28.7l-4.2-34.9h15.3
	L31.7,105.9z M31.7,110.1l4.1,34.2l3.5,29.5H24.1L31.7,110.1z M108,184.4l53.5,6.6h-107L108,184.4z M176.5,175.4h15.9l19.6,36.5
	l-35.5-20.6V175.4z M192,160.1l-6.3-52.1l6.3-52.1V160.1z M192.4,40.6h-15.9V24.7l23.9-13.9L212,4.1L192.4,40.6z M108,31.6
	l-53.5-6.6h106.9L108,31.6z M39.5,24.7v15.9H23.6L4,4.1l14,8.1L39.5,24.7z M24,55.9l6.3,52.1L24,160.1V55.9z M4,211.9l19.6-36.5
	h15.9v15.9l-18.5,10.8L4,211.9z M9.4,210.8l31.2-18.1h134.9l21.1,12.2l14.5,8.4H5L9.4,210.8z M213.3,210.8L201.7,189l-7.9-14.6V41.6
	l7.9-14.6l11.7-21.8V210.8z M204.9,6.2l-29.5,17.1H40.6L5,2.7h206L204.9,6.2z M2.7,5.2L14.3,27l7.9,14.6v132.7L14.3,189L2.7,210.8
	V5.2z"/>
</svg>
