<?xml version="1.0" encoding="utf-8"?>
<svg x="0px" y="0px" viewBox="0 0 216 216" xmlns="http://www.w3.org/2000/svg">
  <path d="M 2.7 5.2 L 2.7 210.8 L 14.3 189 L 22.200000000000003 174.29999999999998 L 22.200000000000003 41.6 L 14.3 27 L 2.7 5.2 Z" style="stroke-width: 0.1; stroke-linejoin: round; stroke: rgb(51, 51, 51); fill: rgb(255, 255, 255);"/>
  <path d="M 174.8 190.8 L 174.8 175.50000000000003 L 112.6 183.10000000000002 L 173.5 190.60000000000002 L 174.8 190.8 Z" style="stroke-width: 0.1; stroke-linejoin: round; stroke: rgb(51, 51, 51); fill: rgb(255, 255, 255);"/>
  <path d="M 191.9 173.7 L 187.6 138.79999999999998 L 184.2 110.1 L 176.6 173.7 L 191.9 173.7 Z" style="stroke-width: 0.1; stroke-linejoin: round; stroke: rgb(51, 51, 51); fill: rgb(255, 255, 255);"/>
  <path d="M 108 34 L 44.9 41.7 L 41.1 42.2 L 33.2 108 L 41.099999999999994 173.8 L 108 182 L 174.9 173.8 L 182.8 108 L 174.9 42.2 L 108 34 Z" style="stroke-width: 0.1; stroke-linejoin: round; stroke: rgb(51, 51, 51); fill: rgb(255, 255, 255);"/>
  <path d="M 58.9 177.7 L 41.2 175.49999999999997 L 41.2 190.79999999999998 L 103.4 183.2 L 58.9 177.7 Z" style="stroke-width: 0.1; stroke-linejoin: round; stroke: rgb(51, 51, 51); fill: rgb(255, 255, 255);"/>
  <path d="M 184.3 105.9 L 192.00000000000003 42.300000000000004 L 176.70000000000002 42.300000000000004 L 184.3 105.9 Z" style="stroke-width: 0.1; stroke-linejoin: round; stroke: rgb(51, 51, 51); fill: rgb(255, 255, 255);"/>
  <path d="M 174.8 25.2 L 157 27.299999999999997 L 112.60000000000001 32.8 L 173.4 40.3 L 174.8 40.5 L 174.8 25.2 Z" style="stroke-width: 0.1; stroke-linejoin: round; stroke: rgb(51, 51, 51); fill: rgb(255, 255, 255);"/>
  <path d="M 103.4 32.8 L 58.900000000000006 27.4 L 41.2 25.2 L 41.2 40.4 L 103.4 32.8 Z" style="stroke-width: 0.1; stroke-linejoin: round; stroke: rgb(51, 51, 51); fill: rgb(255, 255, 255);"/>
  <path d="M 31.7 105.9 L 39.400000000000006 42.300000000000004 L 24.1 42.300000000000004 L 28.3 77.2 L 31.7 105.9 Z" style="stroke-width: 0.1; stroke-linejoin: round; stroke: rgb(51, 51, 51); fill: rgb(255, 255, 255);"/>
  <path d="M 31.7 110.1 L 24.1 173.8 L 39.3 173.8 L 35.8 144.3 L 31.7 110.1 Z" style="stroke-width: 0.1; stroke-linejoin: round; stroke: rgb(51, 51, 51); fill: rgb(255, 255, 255);"/>
  <path d="M 108 184.4 L 54.5 191 L 161.5 191 L 108 184.4 Z" style="stroke-width: 0.1; stroke-linejoin: round; stroke: rgb(51, 51, 51); fill: rgb(255, 255, 255);"/>
  <path d="M 176.5 175.4 L 176.5 191.3 L 212 211.9 L 192.4 175.4 L 176.5 175.4 Z" style="stroke-width: 0.1; stroke-linejoin: round; stroke: rgb(51, 51, 51); fill: rgb(255, 255, 255);"/>
  <path d="M 192 160.1 L 192 55.9 L 185.7 108 L 192 160.1 Z" style="stroke-width: 0.1; stroke-linejoin: round; stroke: rgb(51, 51, 51); fill: rgb(255, 255, 255);"/>
  <path d="M 192.4 40.6 L 212 4.1 L 200.4 10.799999999999999 L 176.5 24.7 L 176.5 40.6 L 192.4 40.6 Z" style="stroke-width: 0.1; stroke-linejoin: round; stroke: rgb(51, 51, 51); fill: rgb(255, 255, 255);"/>
  <path d="M 108 31.6 L 161.4 25 L 54.5 25 L 108 31.6 Z" style="stroke-width: 0.1; stroke-linejoin: round; stroke: rgb(51, 51, 51); fill: rgb(255, 255, 255);"/>
  <path d="M 39.5 24.7 L 18 12.2 L 4 4.1 L 23.6 40.6 L 39.5 40.6 L 39.5 24.7 Z" style="stroke-width: 0.1; stroke-linejoin: round; stroke: rgb(51, 51, 51); fill: rgb(255, 255, 255);"/>
  <path d="M 24 55.9 L 24 160.1 L 30.3 108 L 24 55.9 Z" style="stroke-width: 0.1; stroke-linejoin: round; stroke: rgb(51, 51, 51); fill: rgb(255, 255, 255);"/>
  <path d="M 4 211.9 L 21 202.10000000000002 L 39.5 191.3 L 39.5 175.4 L 23.6 175.4 L 4 211.9 Z" style="stroke-width: 0.1; stroke-linejoin: round; stroke: rgb(51, 51, 51); fill: rgb(255, 255, 255);"/>
  <path d="M 9.4 210.8 L 5 213.3 L 211.1 213.3 L 196.6 204.9 L 175.5 192.70000000000002 L 40.6 192.70000000000002 L 9.4 210.8 Z" style="stroke-width: 0.1; stroke-linejoin: round; stroke: rgb(51, 51, 51); fill: rgb(255, 255, 255);"/>
  <path d="M 213.3 210.8 L 213.39999999999998 210.8 L 213.39999999999998 5.199999999999999 L 201.7 27 L 193.79999999999998 41.6 L 193.79999999999998 174.4 L 201.7 189 L 213.3 210.8 Z" style="stroke-width: 0.1; stroke-linejoin: round; stroke: rgb(51, 51, 51); fill: rgb(255, 255, 255);"/>
  <path d="M 204.9 6.2 L 211 2.7 L 5 2.7 L 40.6 23.3 L 175.4 23.3 L 204.9 6.2 Z" style="stroke-width: 0.1; stroke-linejoin: round; stroke: rgb(51, 51, 51); fill: rgb(255, 255, 255);"/>
</svg>