<svg version="1.1" xmlns="http://www.w3.org/2000/svg" xmlns:xlink="http://www.w3.org/1999/xlink" x="0px" y="0px"
	 viewBox="0 0 216 216" enable-background="new 0 0 216 216" xml:space="preserve">
<path d="M180.6,1.2c-0.2,0-0.4-0.1-0.6-0.2H36c-0.2,0.1-0.4,0.2-0.6,0.2L1.2,35.4c0,0.2-0.1,0.4-0.2,0.6V180
	c0.1,0.2,0.2,0.4,0.2,0.6l34.2,34.3c0.2,0.2,0.4,0.2,0.6,0.2h144c0.3,0,0.5-0.1,0.7-0.3l34.2-34.2c0-0.2,0.1-0.4,0.2-0.6V36
	c-0.1-0.2-0.2-0.4-0.2-0.6L180.6,1.2z M2.6,178.8V37.2L16,41.4l7.7,2.4v128.2l-8,2.5L2.6,178.8z M44.4,190.3l5.2-22.2l54,8
	l-19.6,4.7L44.4,190.3z M112.5,176.1l54-8l5.1,22.2L112.5,176.1z M166.4,166.4l-21,3.1L108,175l-37.3-5.5l-21.1-3.1l-1.9-12.7
	L40.9,108l6.6-44l2.1-14.4l21.7-3.2L108,41l36.7,5.5l21.6,3.2l2.8,18.7L175,108l-6.1,41L166.4,166.4z M39.9,103.5L25.7,44.4
	l22.2,5.1L39.9,103.5z M39.9,112.5l8.1,54l-22.2,5.1L39.9,112.5z M49.6,47.9l-5.2-22.2l51.8,12.4l7.3,1.8l-11,1.6L49.6,47.9z
	 M168.1,49.5l22.2-5.1l-14.2,59.2L168.1,49.5z M121.8,41.3l-9.3-1.4l59.1-14.2l-5.1,22.2L121.8,41.3z M190.3,171.6l-22.2-5.1l8-54
	L190.3,171.6z M39.2,108l-13.8,57.5V50.5L39.2,108z M171.6,182.6l-3.3-14.4l21.5,5l-16.5,16.5L171.6,182.6z M187.1,151.2L176.8,108
	l13.8-57.6v115.1L187.1,151.2z M189.7,42.8l-21.5,5l3.7-16.2l1.2-5.3l8.3,8.3L189.7,42.8z M108,39.2L50.5,25.4h115.1L108,39.2z
	 M47.8,47.7l-21.5-5l16.5-16.5L47.8,47.7z M47.8,168.3l-0.6,2.5l-4.4,19l-16.5-16.5L47.8,168.3z M108,176.8l57.5,13.8H50.5
	L108,176.8z M192.3,172.1V43.9l7.7-2.4l13.4-4.2v141.6l-13.1-4.2L192.3,172.1z M191.7,42.3l-9-9l-9-9l6.7-21l32.3,32.3L191.7,42.3z
	 M178.8,2.6l-6.7,21.1H43.9l-2.5-8L37.2,2.6H178.8z M35.6,3.4l6.7,21l-18,18l-21-6.6L35.6,3.4z M24.3,173.7l18,18l-6.7,21L3.4,180.4
	L24.3,173.7z M41.4,200.1l2.5-7.9h128.2l6.7,21.1H37.2L41.4,200.1z M180.4,212.6l-2-6.5l-4.6-14.5l9-9l9-9l21,6.7L180.4,212.6z"/>
</svg>
