<?xml version="1.0" encoding="utf-8"?>
<svg x="0px" y="0px" viewBox="0 0 216 216" xmlns="http://www.w3.org/2000/svg">
  <path d="M 180.4 212.6 L 212.8 180.29999999999998 L 191.8 173.6 L 182.8 182.6 L 173.8 191.6 L 178.4 206.1 L 180.4 212.6 Z" style="fill: rgb(255, 255, 255); stroke-linejoin: round; stroke-width: 0.1; stroke: rgb(51, 51, 51);"/>
  <path d="M 2.6 178.8 L 15.7 174.5 L 23.7 172 L 23.7 43.8 L 16 41.4 L 2.6 37.2 L 2.6 178.8 Z" style="fill: rgb(255, 255, 255); stroke-linejoin: round; stroke-width: 0.1; stroke: rgb(51, 51, 51);"/>
  <path d="M 44.4 190.3 L 84 180.8 L 103.6 176.10000000000002 L 49.6 168.10000000000002 L 44.4 190.3 Z" style="fill: rgb(255, 255, 255); stroke-linejoin: round; stroke-width: 0.1; stroke: rgb(51, 51, 51);"/>
  <path d="M 112.5 176.1 L 171.6 190.29999999999998 L 166.5 168.1 L 112.5 176.1 Z" style="fill: rgb(255, 255, 255); stroke-linejoin: round; stroke-width: 0.1; stroke: rgb(51, 51, 51);"/>
  <path d="M 166.4 166.4 L 168.9 149 L 175 108 L 169.1 68.4 L 166.29999999999998 49.7 L 144.7 46.5 L 108 41 L 71.3 46.4 L 49.6 49.6 L 47.5 64 L 40.9 108 L 47.7 153.70000000000002 L 49.6 166.4 L 70.7 169.5 L 108 175 L 145.4 169.5 L 166.4 166.4 Z" style="fill: rgb(255, 255, 255); stroke-linejoin: round; stroke-width: 0.1; stroke: rgb(51, 51, 51);"/>
  <path d="M 39.9 103.5 L 47.9 49.5 L 25.7 44.4 L 39.9 103.5 Z" style="fill: rgb(255, 255, 255); stroke-linejoin: round; stroke-width: 0.1; stroke: rgb(51, 51, 51);"/>
  <path d="M 39.9 112.5 L 25.8 171.6 L 48 166.5 L 39.9 112.5 Z" style="fill: rgb(255, 255, 255); stroke-linejoin: round; stroke-width: 0.1; stroke: rgb(51, 51, 51);"/>
  <path d="M 49.6 47.9 L 92.49999999999999 41.5 L 103.49999999999999 39.9 L 96.19999999999999 38.1 L 44.4 25.7 L 49.6 47.9 Z" style="fill: rgb(255, 255, 255); stroke-linejoin: round; stroke-width: 0.1; stroke: rgb(51, 51, 51);"/>
  <path d="M 168.1 49.5 L 176.1 103.6 L 190.29999999999998 44.4 L 168.1 49.5 Z" style="fill: rgb(255, 255, 255); stroke-linejoin: round; stroke-width: 0.1; stroke: rgb(51, 51, 51);"/>
  <path d="M 121.8 41.3 L 166.5 47.9 L 171.6 25.7 L 112.5 39.9 L 121.8 41.3 Z" style="fill: rgb(255, 255, 255); stroke-linejoin: round; stroke-width: 0.1; stroke: rgb(51, 51, 51);"/>
  <path d="M 190.3 171.6 L 176.10000000000002 112.5 L 168.10000000000002 166.5 L 190.3 171.6 Z" style="fill: rgb(255, 255, 255); stroke-linejoin: round; stroke-width: 0.1; stroke: rgb(51, 51, 51);"/>
  <path d="M 39.2 108 L 25.400000000000002 50.5 L 25.400000000000002 165.5 L 39.2 108 Z" style="fill: rgb(255, 255, 255); stroke-linejoin: round; stroke-width: 0.1; stroke: rgb(51, 51, 51);"/>
  <path d="M 171.6 182.6 L 173.29999999999998 189.7 L 189.79999999999998 173.2 L 168.29999999999998 168.2 L 171.6 182.6 Z" style="fill: rgb(255, 255, 255); stroke-linejoin: round; stroke-width: 0.1; stroke: rgb(51, 51, 51);"/>
  <path d="M 187.1 151.2 L 190.60000000000002 165.5 L 190.60000000000002 50.4 L 176.8 108 L 187.1 151.2 Z" style="fill: rgb(255, 255, 255); stroke-linejoin: round; stroke-width: 0.1; stroke: rgb(51, 51, 51);"/>
  <path d="M 189.7 42.8 L 181.39999999999998 34.599999999999994 L 173.09999999999997 26.299999999999997 L 171.89999999999998 31.599999999999998 L 168.2 47.8 L 189.7 42.8 Z" style="fill: rgb(255, 255, 255); stroke-linejoin: round; stroke-width: 0.1; stroke: rgb(51, 51, 51);"/>
  <path d="M 108 39.2 L 165.6 25.4 L 50.5 25.4 L 108 39.2 Z" style="fill: rgb(255, 255, 255); stroke-linejoin: round; stroke-width: 0.1; stroke: rgb(51, 51, 51);"/>
  <path d="M 47.8 47.7 L 42.8 26.200000000000003 L 26.299999999999997 42.7 L 47.8 47.7 Z" style="fill: rgb(255, 255, 255); stroke-linejoin: round; stroke-width: 0.1; stroke: rgb(51, 51, 51);"/>
  <path d="M 47.8 168.3 L 26.299999999999997 173.3 L 42.8 189.8 L 47.199999999999996 170.8 L 47.8 168.3 Z" style="fill: rgb(255, 255, 255); stroke-linejoin: round; stroke-width: 0.1; stroke: rgb(51, 51, 51);"/>
  <path d="M 108 176.8 L 50.5 190.60000000000002 L 165.5 190.60000000000002 L 108 176.8 Z" style="fill: rgb(255, 255, 255); stroke-linejoin: round; stroke-width: 0.1; stroke: rgb(51, 51, 51);"/>
  <path d="M 192.3 172.1 L 200.3 174.7 L 213.4 178.89999999999998 L 213.4 37.3 L 200 41.5 L 192.3 43.9 L 192.3 172.1 Z" style="fill: rgb(255, 255, 255); stroke-linejoin: round; stroke-width: 0.1; stroke: rgb(51, 51, 51);"/>
  <path d="M 191.7 42.3 L 212.7 35.599999999999994 L 180.39999999999998 3.299999999999997 L 173.7 24.299999999999997 L 182.7 33.3 L 191.7 42.3 Z" style="fill: rgb(255, 255, 255); stroke-linejoin: round; stroke-width: 0.1; stroke: rgb(51, 51, 51);"/>
  <path d="M 178.8 2.6 L 37.2 2.6 L 41.4 15.700000000000003 L 43.9 23.700000000000003 L 172.10000000000002 23.700000000000003 L 178.8 2.6 Z" style="fill: rgb(255, 255, 255); stroke-linejoin: round; stroke-width: 0.1; stroke: rgb(51, 51, 51);"/>
  <path d="M 35.6 3.4 L 3.3000000000000043 35.8 L 24.300000000000004 42.4 L 42.300000000000004 24.4 L 35.6 3.4 Z" style="fill: rgb(255, 255, 255); stroke-linejoin: round; stroke-width: 0.1; stroke: rgb(51, 51, 51);"/>
  <path d="M 24.3 173.7 L 3.4 180.4 L 35.599999999999994 212.7 L 42.3 191.7 L 24.3 173.7 Z" style="fill: rgb(255, 255, 255); stroke-linejoin: round; stroke-width: 0.1; stroke: rgb(51, 51, 51);"/>
  <path d="M 41.4 200.1 L 37.2 213.29999999999998 L 178.79999999999998 213.29999999999998 L 172.1 192.2 L 43.9 192.2 L 41.4 200.1 Z" style="fill: rgb(255, 255, 255); stroke-linejoin: round; stroke-width: 0.1; stroke: rgb(51, 51, 51);"/>
</svg>