<?xml version="1.0" encoding="utf-8"?>
<svg x="0px" y="0px" viewBox="0 0 216 216" xmlns="http://www.w3.org/2000/svg">
  <path d="M 31.9 75.6 L 31.9 35 C 22.9 44.3 15.9 55 10.799999999999997 66.89999999999999 L 31.9 75.6 Z" style="fill: rgb(255, 255, 255); stroke-width: 0.1; stroke-linejoin: round; stroke: rgb(51, 51, 51);"/>
  <path d="M 10.2 68.5 C 5.3 80.4 2.8 93 2.5 106 L 20.3 88.1 L 31.299999999999997 77.2 L 14.799999999999999 70.4 L 10.2 68.5 Z" style="fill: rgb(255, 255, 255); stroke-width: 0.1; stroke-linejoin: round; stroke: rgb(51, 51, 51);"/>
  <path d="M 140.3 182.3 L 140.3 182.29999999999998 L 182.20000000000002 182.29999999999998 L 182.20000000000002 140.39999999999998 L 152.60000000000002 152.7 L 147.10000000000002 166 L 140.3 182.3 Z" style="fill: rgb(255, 255, 255); stroke-width: 0.1; stroke-linejoin: round; stroke: rgb(51, 51, 51);"/>
  <path d="M 107.9 213.1 L 119.60000000000001 201.2 L 137.4 183.39999999999998 L 125.4 178.39999999999998 L 107.80000000000001 171.09999999999997 L 78.2 183.39999999999998 L 96 201.2 L 107.9 213.1 Z" style="fill: rgb(255, 255, 255); stroke-width: 0.1; stroke-linejoin: round; stroke: rgb(51, 51, 51);"/>
  <path d="M 2.8 108 L 14.599999999999998 119.8 L 32.4 137.6 L 41.5 115.6 L 44.7 108 L 32.5 78.3 L 14.7 96.1 L 2.8 108 Z" style="fill: rgb(255, 255, 255); stroke-width: 0.1; stroke-linejoin: round; stroke: rgb(51, 51, 51);"/>
  <path d="M 33.9 138.7 L 55.099999999999994 147.49999999999997 L 62.3 150.49999999999997 L 54 130.39999999999998 L 45.699999999999996 110.29999999999998 L 41.699999999999996 119.99999999999999 L 33.9 138.7 Z" style="fill: rgb(255, 255, 255); stroke-width: 0.1; stroke-linejoin: round; stroke: rgb(51, 51, 51);"/>
  <path d="M 54 85.7 L 62.3 65.60000000000001 L 33.9 77.4 L 45.7 105.80000000000001 L 54 85.7 Z" style="fill: rgb(255, 255, 255); stroke-width: 0.1; stroke-linejoin: round; stroke: rgb(51, 51, 51);"/>
  <path d="M 46.6 108 L 59.19999999999997 138.4 L 64.59999999999997 151.4 L 86.29999999999997 160.4 L 107.99999999999997 169.4 L 151.39999999999998 151.4 L 169.39999999999998 108 L 151.39999999999998 64.6 L 129.7 55.599999999999994 L 108 46.599999999999994 L 64.6 64.6 L 55.6 86.3 L 46.6 108 Z" style="fill: rgb(255, 255, 255); stroke-width: 0.1; stroke-linejoin: round; stroke: rgb(51, 51, 51);"/>
  <path d="M 130.2 54.1 L 150.4 62.4 L 138.6 34 L 110.1 45.8 L 130.2 54.1 Z" style="fill: rgb(255, 255, 255); stroke-width: 0.1; stroke-linejoin: round; stroke: rgb(51, 51, 51);"/>
  <path d="M 170.2 110.3 L 153.6 150.5 L 182 138.7 L 170.2 110.3 Z" style="fill: rgb(255, 255, 255); stroke-width: 0.1; stroke-linejoin: round; stroke: rgb(51, 51, 51);"/>
  <path d="M 85.6 162 L 65.49999999999999 153.70000000000002 L 77.29999999999998 182.10000000000002 L 105.69999999999999 170.3 L 85.6 162 Z" style="fill: rgb(255, 255, 255); stroke-width: 0.1; stroke-linejoin: round; stroke: rgb(51, 51, 51);"/>
  <path d="M 161.8 85.7 L 170.1 105.79999999999998 L 181.9 77.39999999999999 L 153.5 65.6 L 161.8 85.7 Z" style="fill: rgb(255, 255, 255); stroke-width: 0.1; stroke-linejoin: round; stroke: rgb(51, 51, 51);"/>
  <path d="M 65.5 62.4 L 105.6 45.8 L 77.2 34 L 65.5 62.4 Z" style="fill: rgb(255, 255, 255); stroke-width: 0.1; stroke-linejoin: round; stroke: rgb(51, 51, 51);"/>
  <path d="M 110.1 170.3 L 137.4 181.50000000000003 L 138.5 182.00000000000003 L 150.3 153.60000000000002 L 110.1 170.3 Z" style="fill: rgb(255, 255, 255); stroke-width: 0.1; stroke-linejoin: round; stroke: rgb(51, 51, 51);"/>
  <path d="M 31.9 140.4 L 10.799999999999997 149.20000000000002 C 15.799999999999997 161.00000000000003 22.9 171.8 31.9 181.10000000000002 L 31.9 140.4 Z" style="fill: rgb(255, 255, 255); stroke-width: 0.1; stroke-linejoin: round; stroke: rgb(51, 51, 51);"/>
  <path d="M 33.6 140.4 L 33.6 182.2 L 75.5 182.2 L 63.2 152.6 L 55.400000000000006 149.4 L 33.6 140.4 Z" style="fill: rgb(255, 255, 255); stroke-width: 0.1; stroke-linejoin: round; stroke: rgb(51, 51, 51);"/>
  <path d="M 171.1 108 L 183.4 137.6 L 213 108 L 183.4 78.4 L 171.1 108 Z" style="fill: rgb(255, 255, 255); stroke-width: 0.1; stroke-linejoin: round; stroke: rgb(51, 51, 51);"/>
  <path d="M 183.9 75.6 L 205 66.9 C 200 55.1 192.9 44.3 183.9 35 L 183.9 75.6 Z" style="fill: rgb(255, 255, 255); stroke-width: 0.1; stroke-linejoin: round; stroke: rgb(51, 51, 51);"/>
  <path d="M 182.2 75.6 L 182.2 33.699999999999996 L 140.29999999999998 33.699999999999996 L 152.6 63.3 L 182.2 75.6 Z" style="fill: rgb(255, 255, 255); stroke-width: 0.1; stroke-linejoin: round; stroke: rgb(51, 51, 51);"/>
  <path d="M 137.5 32.6 L 119.80000000000001 14.9 L 107.9 3 L 78.30000000000001 32.6 L 97.80000000000001 40.7 L 107.9 44.900000000000006 L 137.5 32.6 Z" style="fill: rgb(255, 255, 255); stroke-width: 0.1; stroke-linejoin: round; stroke: rgb(51, 51, 51);"/>
  <path d="M 65.8 57.3 L 75.5 33.7 L 33.6 33.7 L 33.6 75.6 L 63.3 63.4 L 65.8 57.3 Z" style="fill: rgb(255, 255, 255); stroke-width: 0.1; stroke-linejoin: round; stroke: rgb(51, 51, 51);"/>
  <path d="M 20.3 128 L 2.4000000000000012 110.1 C 2.700000000000001 123.1 5.300000000000002 135.7 10.100000000000001 147.6 L 31.200000000000003 138.9 L 20.3 128 Z" style="fill: rgb(255, 255, 255); stroke-width: 0.1; stroke-linejoin: round; stroke: rgb(51, 51, 51);"/>
  <path d="M 75.5 184 L 34.9 184 C 44.199999999999996 193 54.9 200.1 66.8 205.1 L 75.5 184 Z" style="fill: rgb(255, 255, 255); stroke-width: 0.1; stroke-linejoin: round; stroke: rgb(51, 51, 51);"/>
  <path d="M 68.3 205.8 C 80.3 210.6 92.9 213.2 105.8 213.4 L 88 195.6 L 77 184.70000000000002 L 68.3 205.8 Z" style="fill: rgb(255, 255, 255); stroke-width: 0.1; stroke-linejoin: round; stroke: rgb(51, 51, 51);"/>
  <path d="M 146.4 206.2 L 147.39999999999998 205.89999999999998 L 138.7 184.79999999999998 L 127.8 195.7 L 110 213.5 C 122.5 213.2 134.70000000000002 210.79999999999998 146.4 206.2 Z" style="fill: rgb(255, 255, 255); stroke-width: 0.1; stroke-linejoin: round; stroke: rgb(51, 51, 51);"/>
  <path d="M 150.1 204.7 C 161.6 199.7 171.9 192.7 181 184 L 140.3 184 L 149 205.1 L 150.1 204.7 Z" style="fill: rgb(255, 255, 255); stroke-width: 0.1; stroke-linejoin: round; stroke: rgb(51, 51, 51);"/>
  <path d="M 183.9 140.4 L 183.9 181 C 192.9 171.7 200 161 205 149.1 L 183.9 140.4 Z" style="fill: rgb(255, 255, 255); stroke-width: 0.1; stroke-linejoin: round; stroke: rgb(51, 51, 51);"/>
  <path d="M 205.6 147.6 C 210.5 135.7 213.1 123.1 213.3 110.10000000000001 L 184.5 138.9 L 205.6 147.6 Z" style="fill: rgb(255, 255, 255); stroke-width: 0.1; stroke-linejoin: round; stroke: rgb(51, 51, 51);"/>
  <path d="M 184.6 77.2 L 213.39999999999998 106 C 213.1 93 210.5 80.4 205.7 68.5 L 184.6 77.2 Z" style="fill: rgb(255, 255, 255); stroke-width: 0.1; stroke-linejoin: round; stroke: rgb(51, 51, 51);"/>
  <path d="M 140.3 32 L 140.3 32.1 L 180.9 32.1 C 171.6 23.1 160.9 16 149 11 L 140.3 32 Z" style="fill: rgb(255, 255, 255); stroke-width: 0.1; stroke-linejoin: round; stroke: rgb(51, 51, 51);"/>
  <path d="M 147.5 10.3 C 135.5 5.5 122.9 2.9 110 2.6 L 127.9 20.5 L 138.8 31.400000000000002 L 147.5 10.3 Z" style="fill: rgb(255, 255, 255); stroke-width: 0.1; stroke-linejoin: round; stroke: rgb(51, 51, 51);"/>
  <path d="M 69.4 9.9 L 68.39999999999999 10.299999999999997 L 77.1 31.4 L 105.80000000000001 2.7 C 93.30000000000001 2.9000000000000004 81.10000000000001 5.300000000000001 69.4 9.9 Z" style="fill: rgb(255, 255, 255); stroke-width: 0.1; stroke-linejoin: round; stroke: rgb(51, 51, 51);"/>
  <path d="M 65.7 11.4 C 54.3 16.4 43.9 23.3 34.8 32 L 75.5 32 L 66.8 11 L 65.7 11.4 Z" style="fill: rgb(255, 255, 255); stroke-width: 0.1; stroke-linejoin: round; stroke: rgb(51, 51, 51);"/>
</svg>