<svg version="1.1" xmlns="http://www.w3.org/2000/svg" xmlns:xlink="http://www.w3.org/1999/xlink" x="0px" y="0px"
	 viewBox="0 0 216 216" enable-background="new 0 0 216 216" xml:space="preserve">
<path d="M0.9,108c0,14.5,2.8,28.5,8.4,41.7l0,0c0,0,0,0,0,0c16.6,39.2,56.1,65.4,98.7,65.4c42.6,0,82.1-26.1,98.7-65.4c0,0,0,0,0,0
	l0,0c11.2-26.4,11.2-56.9,0-83.4l0,0c0,0,0,0,0,0C190.1,27.1,150.6,0.9,108,0.9C65.4,0.9,26,27.1,9.3,66.3c0,0,0,0,0,0l0,0
	C3.8,79.5,0.9,93.5,0.9,108z M10.5,68.1l45,39.1H2.6C2.8,93.6,5.4,80.5,10.5,68.1z M12.7,67.7l59,5.5v19.7l-13.9,13.9L14.8,69.6
	L12.7,67.7z M182.3,86l-24,20.8l-13.9-13.9V73.3l59-5.5L182.3,86z M120.5,171.3l-11.3-13.1l13.9-13.9h19.7l5.5,59L120.5,171.3z
	 M67.8,203.3l5.5-59H93l13.9,13.9l-11.2,12.9L67.8,203.3z M73.4,73.3h17.9L73.4,91.2V73.3z M124.8,142.7l8.9-8.9l8.9-8.9v17.9H124.8
	z M144.4,95.4L157,108l-12.6,12.6V95.4z M142.7,93.6v28.7l-10.2,10.2l-10.2,10.1H93.7l-10.1-10.1l-10.1-10.2V93.6l20.3-20.3h28.7
	l10.2,10.1L142.7,93.6z M95.4,144.4h25.3L108,157L95.4,144.4z M120.7,71.6H95.4L108,59L120.7,71.6z M71.7,120.6L59,108l12.6-12.6
	V120.6z M73.4,124.8l8.9,8.9l8.9,8.9H73.4V124.8z M142.7,91.2l-8.9-8.9l-8.9-8.9h17.9V91.2z M71.7,123.1v19.7l-59,5.5l45.1-39.1
	L71.7,123.1z M144.4,142.7v-19.7l13.9-13.9l45.1,39.1L144.4,142.7z M142.7,71.6h-19.7l-13.9-13.9l39.1-45.1L142.7,71.6z M67.8,12.7
	l39.1,45.1L93,71.6H73.3l-0.1-0.6L67.8,12.7z M108.9,55.5V2.6c13.5,0.1,26.7,2.7,39.1,7.8L108.9,55.5z M2.6,108.8h52.9l-45.1,39.1
	C5.4,135.5,2.7,122.4,2.6,108.8z M11.4,150.1l58.8-5.5l-37.3,37.3C23.8,172.6,16.5,161.9,11.4,150.1z M71.5,145.8l-5.5,58.9
	c-11.9-5.2-22.6-12.4-31.8-21.5L71.5,145.8z M68.1,205.6l39.1-45.1v52.9C93.6,213.3,80.5,210.6,68.1,205.6z M108.9,160.5l39.1,45.1
	c-12.4,5.1-25.6,7.7-39.1,7.8V160.5z M150.1,204.6l-5.5-58.4l0-0.5l37.4,37.3C172.7,192.2,162,199.5,150.1,204.6z M183.1,181.9
	l-37.3-37.3l58.8,5.5C199.5,161.9,192.3,172.6,183.1,181.9z M205.6,147.9l-45.1-39.1h52.9C213.3,122.4,210.7,135.5,205.6,147.9z
	 M213.4,107.1h-52.9l45-39.1C210.7,80.5,213.3,93.6,213.4,107.1z M204.7,65.9l-28.6,2.7l-30.3,2.8l37.3-37.3
	C192.3,43.3,199.5,54,204.7,65.9z M144.6,70.2l5.5-58.8c11.9,5.2,22.6,12.4,31.8,21.5L144.6,70.2z M107.2,55.5L68.1,10.4
	c12.4-5.1,25.5-7.7,39.1-7.8V55.5z M65.9,11.4l5.5,58.8L34.1,32.9C43.4,23.8,54.1,16.5,65.9,11.4z M32.9,34.1l37.4,37.3l-30.5-2.9
	l-28.4-2.7C16.5,54,23.8,43.3,32.9,34.1z"/>
</svg>
