<?xml version="1.0" encoding="utf-8"?>
<svg x="0px" y="0px" viewBox="0 0 216 216" xmlns="http://www.w3.org/2000/svg">
  <path d="M 180.3 43.8 L 163.9 101.8 L 211.5 19.299999999999997 L 180.3 43.8 Z" style="fill: rgb(255, 255, 255); stroke-width: 0.1; stroke-linejoin: round; stroke: rgb(51, 51, 51);"/>
  <path d="M 141.3 96.5 L 166.3 43.099999999999994 L 116.5 38.699999999999996 L 51.1 44.4 L 78.80000000000001 103.80000000000001 L 107.50000000000001 144.8 L 141.3 96.5 Z" style="fill: rgb(255, 255, 255); stroke-width: 0.1; stroke-linejoin: round; stroke: rgb(51, 51, 51);"/>
  <path d="M 168.1 43.2 L 146.9 88.7 L 178.1 44.1 L 168.1 43.2 Z" style="fill: rgb(255, 255, 255); stroke-width: 0.1; stroke-linejoin: round; stroke: rgb(51, 51, 51);"/>
  <path d="M 108.5 146.3 L 114.30000000000001 154.5 L 137.3 105.20000000000002 L 108.5 146.3 Z" style="fill: rgb(255, 255, 255); stroke-width: 0.1; stroke-linejoin: round; stroke: rgb(51, 51, 51);"/>
  <path d="M 101.7 153.1 L 106.4 146.39999999999998 L 82.80000000000001 112.69999999999999 L 101.7 153.1 Z" style="fill: rgb(255, 255, 255); stroke-width: 0.1; stroke-linejoin: round; stroke: rgb(51, 51, 51);"/>
  <path d="M 73.3 96 L 49.2 44.5 L 37.9 45.5 L 73.3 96 Z" style="fill: rgb(255, 255, 255); stroke-width: 0.1; stroke-linejoin: round; stroke: rgb(51, 51, 51);"/>
  <path d="M 50.3 42.8 L 106.9 37.9 L 45.5 32.5 L 50.3 42.8 Z" style="fill: rgb(255, 255, 255); stroke-width: 0.1; stroke-linejoin: round; stroke: rgb(51, 51, 51);"/>
  <path d="M 126.1 37.8 L 167.1 41.4 L 170.6 33.9 L 126.1 37.8 Z" style="fill: rgb(255, 255, 255); stroke-width: 0.1; stroke-linejoin: round; stroke: rgb(51, 51, 51);"/>
  <path d="M 116.5 37 L 167.1 32.6 L 108.1 16.8 L 49.3 31.1 L 116.5 37 Z" style="fill: rgb(255, 255, 255); stroke-width: 0.1; stroke-linejoin: round; stroke: rgb(51, 51, 51);"/>
  <path d="M 43.5 32.2 L 6 18.4 L 36.7 44 L 48.5 43 L 43.5 32.2 Z" style="fill: rgb(255, 255, 255); stroke-width: 0.1; stroke-linejoin: round; stroke: rgb(51, 51, 51);"/>
  <path d="M 77.4 104.8 L 38.7 49.50000000000001 L 55.7 107.60000000000001 L 98.9 150.8 L 77.4 104.8 Z" style="fill: rgb(255, 255, 255); stroke-width: 0.1; stroke-linejoin: round; stroke: rgb(51, 51, 51);"/>
  <path d="M 107.5 147.8 L 102.5 154.90000000000003 L 108.1 194.10000000000002 L 113.6 156.4 L 107.5 147.8 Z" style="fill: rgb(255, 255, 255); stroke-width: 0.1; stroke-linejoin: round; stroke: rgb(51, 51, 51);"/>
  <path d="M 142.8 97.4 L 117.2 152.10000000000002 L 160.4 107.60000000000001 L 177.4 47.900000000000006 L 142.8 97.4 Z" style="fill: rgb(255, 255, 255); stroke-width: 0.1; stroke-linejoin: round; stroke: rgb(51, 51, 51);"/>
  <path d="M 179.3 42.5 L 209.3 18.900000000000002 L 172.5 33.7 L 168.8 41.6 L 179.3 42.5 Z" style="fill: rgb(255, 255, 255); stroke-width: 0.1; stroke-linejoin: round; stroke: rgb(51, 51, 51);"/>
  <path d="M 171.8 32.1 L 210 16.8 L 114.4 16.8 L 171.8 32.1 Z" style="fill: rgb(255, 255, 255); stroke-width: 0.1; stroke-linejoin: round; stroke: rgb(51, 51, 51);"/>
  <path d="M 44.2 30.6 L 101.1 16.8 L 6.5 16.8 L 44.2 30.6 Z" style="fill: rgb(255, 255, 255); stroke-width: 0.1; stroke-linejoin: round; stroke: rgb(51, 51, 51);"/>
  <path d="M 35.7 45.3 L 4.9 19.6 L 52.2 101.5 L 35.7 45.3 Z" style="fill: rgb(255, 255, 255); stroke-width: 0.1; stroke-linejoin: round; stroke: rgb(51, 51, 51);"/>
  <path d="M 100.8 155.1 L 58.8 113.00000000000001 L 106.6 195.8 L 100.8 155.1 Z" style="fill: rgb(255, 255, 255); stroke-width: 0.1; stroke-linejoin: round; stroke: rgb(51, 51, 51);"/>
  <path d="M 115.2 156.6 L 109.5 195.89999999999998 L 157.1 113.39999999999999 L 115.2 156.6 Z" style="fill: rgb(255, 255, 255); stroke-width: 0.1; stroke-linejoin: round; stroke: rgb(51, 51, 51);"/>
</svg>