<svg version="1.1" xmlns="http://www.w3.org/2000/svg" xmlns:xlink="http://www.w3.org/1999/xlink" x="0px" y="0px"
	 viewBox="0 0 216 216" enable-background="new 0 0 216 216" xml:space="preserve">
<path d="M215.1,15.5c-0.1-0.3-0.4-0.4-0.7-0.4H1.8c0,0,0,0,0,0c0,0-0.1,0-0.1,0.1c-0.1,0-0.2,0.1-0.2,0.1c-0.4,0.2-0.3,0.2-0.3,0.4
	c-0.2,0.2-0.2,0.3-0.1,0.5c0.1,0.2,0.1,0.3,0.2,0.5l106.2,183.9c0,0,0.1,0,0.1,0c0.4,0.5,0.8,0.5,1.3,0c0,0,0.1,0,0.1,0L215.1,16.4
	C215.1,16.1,215.1,15.8,215.1,15.5z M141.3,96.5l-33.8,48.3l-28.7-41L51.1,44.4l65.4-5.7l49.8,4.4L141.3,96.5z M168.1,43.2l10,0.9
	l-31.2,44.6L168.1,43.2z M108.5,146.3l28.8-41.1l-23,49.3L108.5,146.3z M101.7,153.1l-18.9-40.4l23.6,33.7L101.7,153.1z M73.3,96
	L37.9,45.5l11.3-1L73.3,96z M50.3,42.8l-4.8-10.3l61.4,5.4L50.3,42.8z M126.1,37.8l44.5-3.9l-3.5,7.5L126.1,37.8z M116.5,37
	l-67.2-5.9l58.8-14.3l59,15.8L116.5,37z M43.5,32.2l5,10.8l-11.8,1L6,18.4L43.5,32.2z M77.4,104.8l21.5,46l-43.2-43.2l-17-58.1
	L77.4,104.8z M107.5,147.8l6.1,8.6l-5.5,37.7l-5.6-39.2L107.5,147.8z M142.8,97.4l34.6-49.5l-17,59.7l-43.2,44.5L142.8,97.4z
	 M179.3,42.5l-10.5-0.9l3.7-7.9l36.8-14.8L179.3,42.5z M171.8,32.1l-57.4-15.3H210L171.8,32.1z M44.2,30.6L6.5,16.8h94.6L44.2,30.6z
	 M35.7,45.3l16.5,56.2L4.9,19.6L35.7,45.3z M100.8,155.1l5.8,40.7l-47.8-82.8L100.8,155.1z M115.2,156.6l41.9-43.2l-47.6,82.5
	L115.2,156.6z M180.3,43.8l31.2-24.5l-47.6,82.5L180.3,43.8z"/>
</svg>
